<svg width="21" height="20" viewBox="0 0 21 20" fill="none" xmlns="http://www.w3.org/2000/svg">
<path d="M11.9906 18.7675L12.4686 19.3371L12.5445 19.1287L12.6845 18.7441L12.9514 18.0107L13.1695 18.1937L13.479 18.4533L14.0327 18.918L14.0803 18.6481L14.1514 18.2451L14.2779 17.5281L14.549 17.6846L14.8989 17.8867L15.2574 18.0935L15.5004 18.2338V16.822L15.828 16.9415L16.2076 17.0796L16.4876 17.1816L16.8268 17.3051L16.8145 17.2354L16.7621 16.9379L16.691 16.5349L16.5815 15.915L16.9655 15.9827L17.3638 16.0524L17.972 16.1596L17.8292 15.7684L17.6898 15.3838L17.4894 14.8333H18.9006L18.6734 14.4398L18.4687 14.0853L18.1948 13.6109L18.6728 13.5266L19.0705 13.4563L19.5846 13.3657L19.273 12.9936L19.0099 12.6802L18.6778 12.2843L19.1824 12.1007L19.562 11.9626L20.0043 11.8016L19.6143 11.4744L19.3008 11.2113L18.9224 10.8943L19.432 10.6L19.7818 10.398L20.1449 10.1884L19.6912 9.92638L19.3368 9.72175L18.9225 9.48277L19.4124 9.07202L19.7211 8.81252L20.0038 8.57533L19.5059 8.3941L19.1213 8.2541L18.6774 8.09259L19.1184 7.56703L19.3781 7.25764L19.5848 7.01119L19.0659 6.91968L18.6629 6.84859L18.1949 6.76604L18.5595 6.13463L18.7614 5.78482L18.9008 5.54354H17.489L17.7512 4.82321L17.8889 4.44363L17.9714 4.21699L17.485 4.30273L17.0823 4.37382L16.5817 4.46215L16.7201 3.67689L16.7898 3.27908L16.8263 3.07197L16.3894 3.23129L16.0047 3.37129L15.5003 3.55491V2.14312L15.1287 2.35771L14.7742 2.56234L14.2778 2.84892L14.1327 2.02642L14.063 1.62871L14.0331 1.45884L13.7366 1.70778L13.4231 1.97085L12.9518 2.36627L12.6642 1.57594L12.5259 1.19635L12.469 1.03982L12.2499 1.30051L11.9868 1.61397L11.5612 2.12102L11.1421 1.39531L10.9402 1.04559L10.8554 0.898621L10.7103 1.14995L10.5056 1.50444L10.1496 2.12102L9.61862 1.48831L9.35903 1.17883L9.24223 1.03942L9.16068 1.26337L9.02077 1.64793L8.75938 2.36587L8.14201 1.84808L7.83273 1.58848L7.67809 1.45884L7.64573 1.64205L7.57473 2.04514L7.43343 2.84892L6.7605 2.46057L6.41019 2.25843L6.21044 2.14312V3.55491L5.51341 3.30129L5.13382 3.16308L4.88429 3.07197L4.89942 3.1579L4.97042 3.56088L5.12974 4.46215L4.43958 4.34056L4.04187 4.27086L3.73916 4.21699L3.7541 4.25792L3.89351 4.64248L4.22141 5.54344H2.81012L2.81291 5.54832L3.01754 5.90271L3.51591 6.76594L2.92065 6.87079L2.12603 7.01109L2.37268 7.30504L3.03337 8.09249L2.51358 8.28168L1.70702 8.57523L1.98304 8.80685L2.78841 9.48257L2.35386 9.7334L1.56592 10.1884L1.86465 10.3611L2.78801 10.8943L2.44219 11.1844L1.70662 11.8018L2.02526 11.9179L3.03277 12.2845L2.77328 12.594L2.12603 13.3657L2.4633 13.4255L3.51621 13.6112L3.33568 13.9239L2.81042 14.8336H4.22171L4.11108 15.1377L3.73916 16.1598L4.10889 16.0946L5.12924 15.9147L5.07836 16.2035L4.88429 17.3049L5.26387 17.167L6.21044 16.8224V18.234L6.23722 18.2186L6.59171 18.0139L7.43343 17.5278L7.47774 17.7789L7.54744 18.1772L7.67819 18.9185L7.73405 18.8717L8.04752 18.6086L8.75948 18.0112L8.84472 18.2453L8.98283 18.6247L9.24233 19.3376L9.3193 19.2459L9.58238 18.9324L10.15 18.2563L10.276 18.4747L10.478 18.8245L10.8558 19.4788L10.9407 19.3317L11.1453 18.9772L11.5616 18.2563L11.7314 18.4587L11.9906 18.7675ZM10.8555 16.6916C10.0013 16.6926 9.15537 16.5249 8.36622 16.1981C7.57706 15.8712 6.86025 15.3917 6.25694 14.7871C6.24625 14.7764 6.23573 14.7657 6.22538 14.7551C5.02769 13.5438 4.35311 11.9109 4.34666 10.2075C4.34021 8.50407 5.0024 6.86612 6.19088 5.64578C7.37935 4.42544 8.99921 3.72015 10.7022 3.68153C12.4052 3.64292 14.0554 4.27407 15.2979 5.43929C15.3504 5.48828 15.4028 5.5383 15.4537 5.58935C16.364 6.4985 16.9842 7.65732 17.2356 8.9191C17.487 10.1809 17.3584 11.4889 16.866 12.6775C16.3737 13.8662 15.5397 14.882 14.4697 15.5965C13.3997 16.3109 12.142 16.6924 10.8555 16.6916Z" fill="#BBBBBD"/>
<path d="M15.7899 10.1884C15.7899 8.75735 15.1775 7.46675 14.201 6.56479C13.3212 5.75195 12.1457 5.25467 10.8562 5.25467C8.13564 5.25467 5.92236 7.46794 5.92236 10.1884C5.92236 11.5241 6.45589 12.7375 7.32101 13.6266C8.21789 14.5487 9.47185 15.1222 10.856 15.1222C13.5767 15.1222 15.7899 12.9089 15.7899 10.1884ZM11.8792 13.6887H9.96853V9.01934C9.8822 9.05021 9.79408 9.07908 9.70705 9.10537C9.46806 9.17717 9.23804 9.22865 9.07514 9.24478L8.67016 9.28521V7.69498L8.95087 7.62617C9.36411 7.5249 9.73343 7.32495 10.0122 7.11983C10.1098 7.04852 10.2025 6.97085 10.2899 6.88732C10.3184 6.85973 10.3449 6.83275 10.3695 6.80666L10.4791 6.68836H11.8795L11.8792 13.6887Z" fill="#BBBBBD"/>
<path d="M13.4489 6.22348H8.29297V14.2166H13.4489V6.22348Z" fill="#BBBBBD"/>
<path d="M16.0058 3.37118L16.3905 3.23117L16.529 1.86877L15.501 2.33061V2.73449L16.0979 2.46633L16.0058 3.37118Z" fill="#313341"/>
<path d="M19.7818 10.3979L19.432 10.6L19.9037 10.9402L19.3003 11.2113L18.616 11.5187L19.1819 12.1007L19.6 12.5308L19.0094 12.6801L18.2314 12.8769L18.6729 13.5265L19.0248 14.0445L18.4684 14.0852L18.6731 14.4397L19.6881 14.3654L19.0706 13.4563L18.8319 13.105L19.2725 12.9936L20.309 12.7315L19.5615 11.9626L19.247 11.6391L19.6138 11.4744L20.6368 11.0148L19.7818 10.3979Z" fill="#313341"/>
<path d="M17.0825 4.37383L16.9384 4.88266L17.7513 4.82312L18.3463 4.7795L17.9769 5.54345L17.7317 6.05029L18.5595 6.13453L19.136 6.19318L18.6632 6.84849L18.3101 7.33801L19.1187 7.56693L19.6684 7.72257L19.1216 8.25401L18.6562 8.70648L19.4121 9.07202L19.927 9.32106L19.3372 9.72176L19.6916 9.92639L20.6619 9.26719L19.7215 8.81243L19.2903 8.60392L19.5063 8.39401L20.3827 7.54194L19.3784 7.25755L18.9168 7.12681L19.0662 6.91959L19.8082 5.89127L18.7614 5.78472L18.2924 5.73703L18.386 5.54345L18.9558 4.36547L17.8894 4.44363L17.4363 4.47679L17.4856 4.30273L17.8513 3.01083L16.7903 3.27909L16.7202 3.6769L17.3229 3.52445L17.0825 4.37383Z" fill="#313341"/>
<path d="M17.6516 17.1893L17.3641 16.0525L16.9663 15.9823L17.1379 16.6609L16.6915 16.5345L15.7797 16.2763L15.8284 16.9412L15.8829 17.6842L15.5008 17.4993L14.612 17.0696L14.5495 17.6843L14.4692 18.474L14.1519 18.245L13.3244 17.648L13.17 18.1936L12.9398 19.0062L12.6849 18.744L12.5449 19.1286L13.1205 19.7206L13.4794 18.4532L13.5356 18.2547L14.0808 18.648L14.7711 19.1461L14.8994 17.8863L14.9254 17.6304L15.5008 17.9087L16.2969 18.2937L16.208 17.0793L16.1856 16.7741L16.7626 16.9375L17.6516 17.1893Z" fill="#313341"/>
<path d="M17.8298 15.7684L18.7938 15.8665L18.3297 14.8333H17.9257L18.1963 15.4353L17.6899 15.3838L17.8298 15.7684Z" fill="#313341"/>
<path d="M2.87948 5.54341H3.56814L3.12842 4.56457L3.89416 4.64244L4.53274 4.70747L4.43993 4.34053L4.18671 3.33889L4.97047 3.56085L5.54493 3.72346L5.51396 3.30115L5.44177 2.31565L6.21079 2.68757V2.27831L5.02763 1.70615L5.13437 3.16294L5.13895 3.22568L4.89947 3.15786L3.6731 2.81054L4.04223 4.27043L4.04661 4.28765L3.75425 4.25788L2.53076 4.13341L3.1551 5.52319L2.87948 5.54341Z" fill="#313341"/>
<path d="M2.40718 12.8733L1.51577 14.1089L3.03152 14.2631L2.36824 15.6347L3.88767 15.5233L3.47264 16.9892L4.94975 16.6157L4.79551 18.1315L6.18529 17.5071L6.21058 17.8524V17.0919L5.22667 17.5339L5.26401 17.1667L4.88413 17.305L5.0783 16.2032L4.00099 16.4756L4.10883 16.0948L3.73911 16.16L4.11122 15.1375L2.97775 15.2206L3.16495 14.8334L3.59223 13.9498L3.33552 13.9237L2.18791 13.8069L2.46314 13.4253L2.12588 13.3659L2.77342 12.5942L1.65558 12.2776L2.0257 11.9178L2.66777 11.2936L2.44233 11.1846L1.39698 10.679L1.86479 10.3613L2.56461 9.88579L2.35361 9.73354L1.41988 9.05991L1.98279 8.80699L1.70676 8.57537L2.51343 8.28182L1.72349 7.46928L2.37253 7.30518L3.09206 7.12316L2.92079 6.87103L2.29884 5.95553L3.01768 5.90285L2.81305 5.54846L1.63546 5.63479L2.49162 6.89503L1.01451 7.26854L2.07659 8.36099L0.686804 8.98533L1.92234 9.87673L0.662109 10.7329L2.03367 11.3962L0.941221 12.4582L2.40718 12.8733Z" fill="#313341"/>
<path d="M11.7321 18.4584L11.3418 19.2652L11.146 18.9769L10.5485 18.0975L10.2767 18.4743L9.72264 19.2422L9.58334 18.9321L9.14421 17.9546L8.84568 18.2449L8.13202 18.9385L8.04847 18.6082L7.78599 17.5701L7.4783 17.7791L6.61836 18.3633L6.59277 18.0137L6.23828 18.2183L6.29753 19.0267L7.5484 18.1769L7.55776 18.1705L7.73501 18.8713L7.93127 19.6475L8.98379 18.6244L9.02372 18.5855L9.32026 19.2455L9.64806 19.9753L10.4786 18.8241L10.5395 18.7398L10.9414 19.3314L11.3956 20L11.9917 18.7677L11.7321 18.4584Z" fill="#313341"/>
<path d="M6.85604 1.5259L7.57567 2.04509L8.00076 2.35179L8.14326 1.84833L8.38533 0.993569L9.02171 1.64818L9.36933 2.00576L9.61957 1.48826L9.98392 0.734871L10.5066 1.50429L10.7771 1.9026L11.1431 1.39526L11.603 0.757773L11.9876 1.61383L12.1815 2.04539L12.6646 1.57579L13.1936 1.06148L13.4236 1.97071L13.737 1.70763L13.3944 0.352499L12.5264 1.19621L12.3019 1.41448L12.2507 1.30036L11.6776 0.0246948L10.9411 1.04545L10.7862 1.26023L10.7112 1.1498L9.93005 0L9.35997 1.17878L9.26667 1.37166L9.16162 1.26362L8.20469 0.279211L7.83397 1.58874L7.78966 1.74517L7.64667 1.64201L6.55402 0.853665L6.41113 2.25838L6.76094 2.46032L6.85604 1.5259Z" fill="#313341"/>
<path d="M14.7067 1.63676L14.7746 2.56232L15.129 2.35769L15.0276 0.973389L14.063 1.6287L14.1331 2.0264L14.7067 1.63676Z" fill="#313341"/>
<path d="M12.7491 3.83914C11.3404 3.36093 9.81025 3.3802 8.41399 3.89375C7.01773 4.40729 5.83977 5.38406 5.0766 6.6611C4.31344 7.93815 4.01121 9.43826 4.22035 10.9112C4.42948 12.3841 5.13733 13.7408 6.22582 14.755C6.28676 14.8119 6.34889 14.8676 6.41222 14.9223C7.68277 16.0209 9.32913 16.5853 11.0065 16.4973C12.6838 16.4093 14.2621 15.6757 15.4107 14.4501C16.5593 13.2245 17.1891 11.6021 17.1683 9.92254C17.1475 8.24301 16.4777 6.63666 15.2991 5.43993C15.2991 5.43993 15.2991 5.43993 15.2985 5.43993C15.1753 5.31486 15.0467 5.19437 14.9124 5.07847C14.2783 4.52925 13.5436 4.10836 12.7491 3.83914ZM16.1248 7.20531C16.8236 8.56689 16.9903 10.14 16.5922 11.6178C16.1941 13.0955 15.2598 14.3721 13.9716 15.1983C12.6834 16.0246 11.1335 16.3414 9.62437 16.087C8.11521 15.8325 6.75494 15.0251 5.80886 13.822C4.86278 12.619 4.39873 11.1067 4.50721 9.58012C4.61569 8.05351 5.28892 6.62204 6.39561 5.5649C7.5023 4.50775 8.96308 3.90074 10.4931 3.86224C12.023 3.82375 13.5125 4.35653 14.671 5.35668C15.2711 5.87264 15.7651 6.50054 16.1253 7.20531H16.1248Z" fill="#313341"/>
<path d="M10.2747 4.71189C7.35895 4.92558 5.16061 7.47154 5.3742 10.3877C5.58779 13.3039 8.13395 15.5018 11.05 15.2882C13.9661 15.0745 16.1643 12.5285 15.9506 9.61233C15.7369 6.69614 13.1906 4.4982 10.2747 4.71189ZM10.8558 15.1221C9.47095 15.1221 8.21699 14.5486 7.32081 13.6265C6.4303 12.8066 5.83713 11.6601 5.74183 10.3604C5.54288 7.64739 7.58847 5.27818 10.3016 5.07933C11.8134 4.9685 13.2183 5.5546 14.2005 6.5647C15.1771 7.46666 15.7894 8.75727 15.7894 10.1883C15.7895 12.9088 13.5763 15.1221 10.8558 15.1221Z" fill="#313341"/>
<path d="M9.25504 3.3436C9.32026 3.33205 9.38648 3.3207 9.4519 3.30985C9.45807 3.30875 9.46415 3.30756 9.47012 3.30606C9.52966 3.29139 9.58164 3.25516 9.616 3.20437C9.65035 3.15358 9.66465 3.09185 9.65611 3.03113C9.64757 2.9704 9.61681 2.91501 9.56978 2.87566C9.52275 2.83632 9.46279 2.81582 9.40152 2.81814C9.3911 2.81854 9.38072 2.81964 9.37045 2.82143C9.30323 2.83258 9.23552 2.84423 9.16911 2.85588C9.1044 2.86727 9.04688 2.90391 9.00918 2.95772C8.97149 3.01153 8.95672 3.0781 8.96811 3.14281C8.97951 3.20751 9.01614 3.26504 9.06995 3.30273C9.12376 3.34042 9.19034 3.3552 9.25504 3.3438V3.3436Z" fill="#313341"/>
<path d="M8.33194 3.58325C8.33472 3.58265 8.33751 3.58185 8.3403 3.58106C8.40403 3.56323 8.46875 3.54541 8.53288 3.52798C8.56486 3.52003 8.59493 3.50577 8.62133 3.48605C8.64773 3.46633 8.66993 3.44154 8.68663 3.41312C8.70332 3.38471 8.71418 3.35325 8.71857 3.32059C8.72295 3.28793 8.72077 3.25472 8.71215 3.22292C8.70354 3.19111 8.68866 3.16134 8.6684 3.13535C8.64813 3.10937 8.62288 3.08769 8.59413 3.07159C8.56538 3.05548 8.5337 3.04528 8.50095 3.04158C8.46821 3.03787 8.43505 3.04074 8.40343 3.05002C8.33721 3.06794 8.2709 3.08626 8.20647 3.10439C8.14447 3.12237 8.09195 3.16386 8.06009 3.22001C8.02823 3.27616 8.01956 3.34253 8.03592 3.40498C8.05227 3.46743 8.09237 3.52102 8.14767 3.55434C8.20296 3.58765 8.26908 3.59806 8.33194 3.58335V3.58325Z" fill="#313341"/>
<path d="M7.48797 3.95654C7.50315 3.95281 7.51795 3.94767 7.53218 3.94121C7.58844 3.91552 7.64789 3.88883 7.71401 3.85965C7.76961 3.83451 7.81398 3.78973 7.83859 3.73388C7.86321 3.67804 7.86634 3.61508 7.84738 3.55707C7.82842 3.49906 7.78871 3.4501 7.73587 3.41957C7.68303 3.38904 7.62078 3.3791 7.56106 3.39165C7.54478 3.39524 7.5289 3.40044 7.51366 3.40718C7.44555 3.43705 7.38421 3.46474 7.32676 3.49102C7.27063 3.51655 7.22604 3.56211 7.20172 3.61877C7.1774 3.67543 7.17509 3.73913 7.19525 3.79741C7.21541 3.85568 7.25658 3.90434 7.31072 3.93386C7.36486 3.96339 7.42806 3.97165 7.48797 3.95704V3.95654Z" fill="#313341"/>
<path d="M6.58438 4.42771C6.62385 4.4381 6.6653 4.43851 6.70497 4.4289C6.72855 4.42313 6.75116 4.41393 6.77208 4.40162L6.78851 4.39166C6.84029 4.36119 6.89237 4.33122 6.94315 4.30254C6.99512 4.27329 7.03478 4.22628 7.05487 4.17013C7.07495 4.11398 7.0741 4.05248 7.05247 3.99691C7.03084 3.94134 6.98989 3.89544 6.93714 3.86764C6.88439 3.83984 6.82337 3.83201 6.76531 3.84558C6.74245 3.85088 6.72048 3.85947 6.70009 3.87108C6.64612 3.90145 6.59135 3.93301 6.53728 3.96478L6.52125 3.97424C6.47899 3.99902 6.44503 4.03578 6.42368 4.07988C6.40232 4.12397 6.39453 4.17341 6.40129 4.22193C6.40805 4.27045 6.42906 4.31588 6.46165 4.35246C6.49424 4.38903 6.53696 4.41512 6.58438 4.42741V4.42771Z" fill="#313341"/>
<path d="M5.94198 4.41003C5.91933 4.41936 5.89818 4.43201 5.87925 4.44757C5.81781 4.49786 5.76564 4.54167 5.71993 4.5812C5.6791 4.61653 5.65093 4.66423 5.6397 4.71704C5.62847 4.76986 5.63479 4.82489 5.6577 4.87378C5.68061 4.92267 5.71886 4.96274 5.76664 4.9879C5.81441 5.01306 5.86909 5.02193 5.92237 5.01316C5.96714 5.00579 6.00898 4.98614 6.04325 4.9564C6.08627 4.91936 6.13536 4.87824 6.19351 4.83064C6.23947 4.79304 6.27039 4.74017 6.28063 4.68168C6.29087 4.62319 6.27975 4.56296 6.2493 4.51198C6.21885 4.461 6.1711 4.42266 6.11474 4.40395C6.05838 4.38523 5.99718 4.38739 5.94228 4.41003H5.94198Z" fill="#313341"/>
<path d="M5.25892 5.74566C5.30288 5.73442 5.34288 5.71126 5.37453 5.67874C5.41436 5.63821 5.45956 5.59301 5.51334 5.54053C5.53663 5.51784 5.55523 5.49077 5.56807 5.46089C5.5809 5.43101 5.58773 5.39889 5.58816 5.36637C5.58858 5.33385 5.5826 5.30157 5.57055 5.27136C5.55849 5.24115 5.54061 5.21362 5.51792 5.19032C5.49522 5.16702 5.46816 5.14843 5.43828 5.13559C5.4084 5.12275 5.37628 5.11593 5.34376 5.1155C5.31124 5.11507 5.27895 5.12106 5.24875 5.13311C5.21854 5.14516 5.191 5.16305 5.16771 5.18574C5.11085 5.2412 5.06255 5.2893 5.02014 5.33271C4.98593 5.36776 4.96288 5.41216 4.9539 5.4603C4.94493 5.50845 4.95043 5.55817 4.96971 5.60319C4.98899 5.64821 5.02118 5.6865 5.06222 5.71322C5.10326 5.73994 5.1513 5.7539 5.20027 5.75332C5.22006 5.75314 5.23975 5.75057 5.25892 5.74566Z" fill="#313341"/>
<path d="M19.2588 5.1827L19.5077 4.93376C19.5321 4.90843 19.5456 4.87455 19.5452 4.83941C19.5449 4.80426 19.5308 4.77065 19.5059 4.7458C19.4811 4.72094 19.4475 4.70683 19.4123 4.70649C19.3772 4.70615 19.3433 4.7196 19.3179 4.74397L19.069 4.99291C19.0561 5.00528 19.0459 5.02009 19.0388 5.03648C19.0317 5.05287 19.028 5.0705 19.0278 5.08835C19.0277 5.10619 19.0311 5.12389 19.0378 5.14041C19.0446 5.15694 19.0545 5.17194 19.0671 5.18456C19.0798 5.19718 19.0948 5.20716 19.1113 5.21391C19.1278 5.22066 19.1455 5.22405 19.1634 5.22387C19.1812 5.2237 19.1988 5.21997 19.2152 5.2129C19.2316 5.20583 19.2464 5.19556 19.2588 5.1827Z" fill="#313341"/>
<path d="M20.314 4.12722L20.5629 3.87828C20.5873 3.85295 20.6007 3.81907 20.6004 3.78393C20.6001 3.74878 20.5859 3.71517 20.5611 3.69032C20.5362 3.66546 20.5026 3.65135 20.4675 3.65101C20.4323 3.65067 20.3985 3.66412 20.3731 3.68849L20.1242 3.93743C20.1113 3.9498 20.1011 3.96461 20.094 3.981C20.0869 3.99739 20.0832 4.01502 20.083 4.03287C20.0828 4.05071 20.0862 4.06841 20.093 4.08493C20.0997 4.10145 20.1097 4.11646 20.1223 4.12908C20.1349 4.1417 20.15 4.15168 20.1665 4.15843C20.183 4.16518 20.2007 4.16856 20.2185 4.16839C20.2364 4.16822 20.254 4.16449 20.2704 4.15742C20.2868 4.15035 20.3016 4.14008 20.314 4.12722Z" fill="#313341"/>
<path d="M20.3724 5.1827C20.3977 5.20707 20.4316 5.22053 20.4667 5.22018C20.5019 5.21984 20.5355 5.20573 20.5603 5.18088C20.5852 5.15602 20.5993 5.12241 20.5996 5.08727C20.6 5.05212 20.5865 5.01824 20.5622 4.99291L20.3132 4.74397C20.2879 4.7196 20.254 4.70615 20.2189 4.70649C20.1837 4.70683 20.1501 4.72094 20.1253 4.7458C20.1004 4.77065 20.0863 4.80426 20.0859 4.83941C20.0856 4.87455 20.0991 4.90843 20.1234 4.93376L20.3724 5.1827Z" fill="#313341"/>
<path d="M19.3177 4.12722C19.3301 4.14008 19.3449 4.15035 19.3612 4.15742C19.3776 4.16449 19.3953 4.16822 19.4131 4.16839C19.431 4.16856 19.4487 4.16518 19.4652 4.15843C19.4817 4.15168 19.4967 4.1417 19.5093 4.12908C19.522 4.11646 19.5319 4.10145 19.5387 4.08493C19.5454 4.06841 19.5488 4.05071 19.5486 4.03287C19.5485 4.01502 19.5447 3.99739 19.5377 3.981C19.5306 3.96461 19.5203 3.9498 19.5075 3.93743L19.2585 3.68849C19.2332 3.66412 19.1993 3.65067 19.1642 3.65101C19.129 3.65135 19.0954 3.66546 19.0706 3.69032C19.0457 3.71517 19.0316 3.74878 19.0313 3.78393C19.0309 3.81907 19.0444 3.85295 19.0687 3.87828L19.3177 4.12722Z" fill="#313341"/>
<path d="M3.27806 2.49026L3.527 2.24132C3.5522 2.21616 3.56636 2.18201 3.56638 2.1464C3.5664 2.11079 3.55227 2.07663 3.5271 2.05143C3.50193 2.02624 3.46779 2.01207 3.43218 2.01205C3.39656 2.01204 3.3624 2.02616 3.33721 2.05133L3.08827 2.30027C3.0639 2.3256 3.05045 2.35948 3.05079 2.39463C3.05113 2.42977 3.06524 2.46338 3.0901 2.48824C3.11495 2.51309 3.14856 2.5272 3.18371 2.52755C3.21885 2.52789 3.25273 2.51443 3.27806 2.49006V2.49026Z" fill="#313341"/>
<path d="M4.33235 1.43508L4.58129 1.18614C4.60651 1.16096 4.6207 1.12679 4.62073 1.09115C4.62075 1.05551 4.60662 1.02132 4.58144 0.996098C4.55626 0.970878 4.52209 0.956693 4.48645 0.956665C4.45081 0.956637 4.41662 0.970768 4.3914 0.995949L4.14246 1.24489C4.11724 1.27007 4.10306 1.30424 4.10303 1.33988C4.10301 1.35753 4.10648 1.375 4.11322 1.39131C4.11996 1.40762 4.12984 1.42244 4.14231 1.43493C4.15478 1.44742 4.16959 1.45733 4.18588 1.46409C4.20218 1.47086 4.21965 1.47435 4.2373 1.47436C4.27294 1.47439 4.30713 1.46026 4.33235 1.43508Z" fill="#313341"/>
<path d="M4.39239 2.49009C4.41758 2.51526 4.45174 2.52939 4.48735 2.52937C4.52296 2.52935 4.55711 2.51519 4.58228 2.48999C4.60744 2.4648 4.62157 2.43064 4.62155 2.39503C4.62154 2.35941 4.60737 2.32527 4.58218 2.3001L4.33324 2.05116C4.30791 2.02679 4.27403 2.01334 4.23888 2.01368C4.20373 2.01402 4.17012 2.02813 4.14527 2.05299C4.12042 2.07784 4.1063 2.11145 4.10596 2.1466C4.10562 2.18174 4.11908 2.21562 4.14345 2.24095L4.39239 2.49009Z" fill="#313341"/>
<path d="M3.33721 1.43487C3.3497 1.44733 3.36452 1.45721 3.38082 1.46395C3.39713 1.47068 3.4146 1.47414 3.43225 1.47412C3.44989 1.4741 3.46735 1.47061 3.48365 1.46384C3.49994 1.45707 3.51474 1.44716 3.5272 1.43467C3.53966 1.42218 3.54954 1.40736 3.55628 1.39106C3.56301 1.37475 3.56647 1.35728 3.56645 1.33963C3.56643 1.32199 3.56294 1.30453 3.55617 1.28823C3.5494 1.27194 3.53949 1.25714 3.527 1.24468L3.27806 0.99574C3.25273 0.971375 3.21885 0.957917 3.18371 0.958258C3.14856 0.9586 3.11495 0.972713 3.0901 0.997567C3.06524 1.02242 3.05113 1.05603 3.05079 1.09118C3.05045 1.12632 3.0639 1.1602 3.08827 1.18553L3.33721 1.43487Z" fill="#313341"/>
<path d="M6.60215 9.77529L8.68857 11.3187C8.69315 11.3221 8.69678 11.3267 8.6991 11.3319C8.70142 11.3372 8.70235 11.3429 8.70181 11.3486L8.51501 13.3386L8.46522 13.8734L8.45964 13.9325C8.45644 13.9669 8.4609 14.0016 8.47271 14.034C8.48453 14.0665 8.5034 14.0959 8.52796 14.1202C8.55253 14.1445 8.58218 14.163 8.61477 14.1745C8.64737 14.1859 8.68209 14.19 8.71645 14.1864C8.75634 14.1819 8.79443 14.1673 8.82708 14.144L10.9398 12.6367C10.9444 12.6334 10.9498 12.6314 10.9555 12.6308C10.9611 12.6302 10.9668 12.6311 10.972 12.6333L11.1419 12.7066L13.2126 13.6012L13.3546 13.6625C13.4051 13.6846 13.4618 13.6879 13.5145 13.672C13.5673 13.6561 13.6126 13.6219 13.6425 13.5756C13.6613 13.5468 13.6735 13.5142 13.6781 13.48C13.6827 13.4459 13.6797 13.4112 13.6692 13.3784L12.9154 10.9878L12.8172 11.078C12.7924 11.1009 12.7728 11.1289 12.7599 11.1601L13.4785 13.4387C13.4801 13.4432 13.4807 13.448 13.4801 13.4528C13.4795 13.4575 13.4778 13.4621 13.4751 13.4661C13.4723 13.4703 13.4687 13.4739 13.4645 13.4766C13.4602 13.4793 13.4554 13.4811 13.4504 13.4818C13.4448 13.4823 13.4391 13.4813 13.434 13.4789L13.1643 13.3624L11.0514 12.4497C11.0146 12.4338 10.9743 12.4276 10.9344 12.4319C10.8945 12.4361 10.8563 12.4506 10.8237 12.4739L10.3621 12.8031L8.71038 13.9812C8.70578 13.9846 8.7004 13.9867 8.69474 13.9875C8.68973 13.9879 8.68469 13.9872 8.67996 13.9855C8.67524 13.9837 8.67094 13.981 8.66736 13.9775C8.66391 13.9742 8.6613 13.9701 8.65973 13.9655C8.65815 13.961 8.65766 13.9562 8.6583 13.9514L8.67682 13.7539L8.89001 11.4844L8.90096 11.3674C8.90458 11.3275 8.89788 11.2873 8.88151 11.2506C8.86514 11.214 8.83964 11.1822 8.80746 11.1583L6.72115 9.61487C6.71604 9.61112 6.71212 9.60597 6.70987 9.60005C6.70761 9.59413 6.70711 9.58768 6.70842 9.58148C6.70974 9.57528 6.71281 9.56959 6.71727 9.56509C6.72174 9.5606 6.7274 9.55748 6.73359 9.55612L7.1084 9.47208L6.94579 9.32271C6.94078 9.31826 6.93729 9.31233 6.93583 9.30579L6.68978 9.36015C6.64622 9.36995 6.60639 9.39205 6.57502 9.42382C6.54366 9.4556 6.52208 9.49571 6.51285 9.5394C6.50362 9.58308 6.50713 9.62849 6.52296 9.67024C6.53879 9.71199 6.56628 9.74831 6.60215 9.77489V9.77529Z" fill="#313341"/>
<path d="M6.9812 9.02231L7.13992 9.16799L8.84645 10.7354C8.87516 10.762 8.89658 10.7955 8.90868 10.8327C8.92078 10.8699 8.92315 10.9095 8.91556 10.9479L8.87832 11.1318L8.51238 12.9414L8.4135 13.4303C8.41239 13.4349 8.41237 13.4396 8.41342 13.4442C8.41448 13.4487 8.41658 13.4529 8.41957 13.4565C8.42267 13.4604 8.42657 13.4635 8.43098 13.4657C8.4354 13.4678 8.44024 13.469 8.44516 13.4692C8.45072 13.4691 8.45615 13.4676 8.4609 13.4647L8.46339 13.4633L8.6704 13.3465L10.3145 12.4187L10.6665 12.2196C10.7006 12.2004 10.7391 12.1903 10.7783 12.1903C10.8174 12.1903 10.8559 12.2004 10.8901 12.2196L11.0754 12.3242L13.0958 13.4642C13.1005 13.4671 13.1059 13.4686 13.1115 13.4687C13.1164 13.4685 13.1213 13.4673 13.1257 13.4652C13.1301 13.463 13.134 13.4599 13.1371 13.456C13.1401 13.4524 13.1421 13.4482 13.1432 13.4436C13.1442 13.4391 13.1442 13.4344 13.1431 13.4298L13.0961 13.1971L13.0489 12.9641L12.6406 10.9474C12.633 10.909 12.6354 10.8694 12.6474 10.8322C12.6595 10.795 12.6809 10.7615 12.7096 10.7349L12.8054 10.647L14.5749 9.02181C14.5794 9.01763 14.5826 9.01223 14.5842 9.00626C14.5858 9.00029 14.5856 8.99399 14.5837 8.98812C14.5818 8.98225 14.5782 8.97705 14.5734 8.97314C14.5687 8.96923 14.5629 8.96677 14.5567 8.96605L14.202 8.92522L13.9662 8.89854L12.0413 8.67688C12.0025 8.67232 11.9654 8.65785 11.9338 8.63485C11.9021 8.61185 11.8769 8.5811 11.8605 8.54554L11.8073 8.42924L11.6405 8.06429L10.8076 6.24205C10.805 6.23643 10.8009 6.23166 10.7957 6.22832C10.7905 6.22498 10.7845 6.22321 10.7783 6.22321C10.7722 6.22321 10.7661 6.22498 10.7609 6.22832C10.7557 6.23166 10.7516 6.23643 10.7491 6.24205L10.6673 6.42129L10.5684 6.63747L9.69614 8.54574C9.67968 8.58124 9.6544 8.61194 9.62271 8.6349C9.59102 8.65785 9.55397 8.67231 9.51511 8.67688L9.13453 8.72069L7.30084 8.93199L6.99932 8.96675C6.99314 8.96727 6.98726 8.96965 6.98246 8.97358C6.97766 8.9775 6.97417 8.9828 6.97244 8.98875C6.97059 8.99427 6.97021 9.00017 6.97134 9.00588C6.97284 9.01225 6.97628 9.01799 6.9812 9.02231Z" fill="#1F222D"/>
<path d="M9.26673 8.98817C9.30582 8.97925 9.34196 8.96047 9.37172 8.9336C9.40148 8.90674 9.42385 8.87269 9.43671 8.83472L10.2601 6.373C10.2621 6.36698 10.2658 6.36165 10.2707 6.35766C10.2756 6.35367 10.2816 6.3512 10.2879 6.35052C10.2942 6.34985 10.3006 6.35101 10.3063 6.35387C10.3119 6.35673 10.3166 6.36116 10.3198 6.36663L10.6227 6.87805L11.6423 8.59972C11.6629 8.63417 11.6919 8.66276 11.7267 8.68278C11.7614 8.70279 11.8008 8.71355 11.8409 8.71403H11.8921L14.436 8.73604C14.4423 8.73611 14.4485 8.73799 14.4538 8.74146C14.4591 8.74493 14.4633 8.74984 14.4659 8.75562C14.4684 8.7614 14.4693 8.76779 14.4684 8.77405C14.4674 8.7803 14.4647 8.78615 14.4605 8.79091L14.1053 9.19568L14.3473 9.22356L14.6112 8.92394C14.6406 8.8904 14.6599 8.84911 14.6666 8.80496C14.6733 8.76082 14.6672 8.71567 14.6489 8.6749C14.6307 8.63413 14.6012 8.59944 14.5639 8.57496C14.5265 8.55048 14.483 8.53723 14.4383 8.53679L11.8431 8.51438C11.8374 8.51431 11.8318 8.51279 11.8269 8.50997C11.822 8.50714 11.8179 8.50311 11.815 8.49825L11.7217 8.34082L10.7239 6.65689L10.4919 6.26506C10.4691 6.22666 10.4358 6.19562 10.3959 6.17561C10.356 6.15561 10.3111 6.14749 10.2667 6.15222C10.2223 6.15695 10.1802 6.17433 10.1454 6.2023C10.1106 6.23026 10.0846 6.26763 10.0704 6.30997L9.24711 8.77119C9.24529 8.77657 9.24212 8.78139 9.2379 8.78519C9.23368 8.78899 9.22855 8.79165 9.22302 8.7929L7.27441 9.22984L9.15341 9.01356L9.26673 8.98817Z" fill="#313341"/>
<path d="M12.8838 8.32037L13.069 8.13516C13.0878 8.11644 13.0983 8.09104 13.0983 8.06456C13.0983 8.03808 13.0878 8.01269 13.069 7.99396C13.0503 7.97524 13.0249 7.96472 12.9984 7.96472C12.972 7.96472 12.9466 7.97524 12.9278 7.99396L12.7426 8.17918C12.7239 8.1979 12.7134 8.2233 12.7134 8.24978C12.7134 8.27626 12.7239 8.30165 12.7426 8.32037C12.7613 8.3391 12.7867 8.34962 12.8132 8.34962C12.8397 8.34962 12.8651 8.3391 12.8838 8.32037Z" fill="#313341"/>
<path d="M13.668 7.53507L13.8532 7.34986C13.8625 7.34058 13.8698 7.32957 13.8748 7.31745C13.8799 7.30533 13.8824 7.29234 13.8824 7.27923C13.8824 7.26611 13.8798 7.25312 13.8748 7.24101C13.8698 7.22889 13.8624 7.21788 13.8532 7.20861C13.8439 7.19934 13.8329 7.19199 13.8207 7.18697C13.8086 7.18196 13.7956 7.17938 13.7825 7.17938C13.7694 7.17939 13.7564 7.18198 13.7443 7.187C13.7322 7.19202 13.7212 7.19938 13.7119 7.20866L13.5273 7.39387C13.518 7.40314 13.5107 7.41415 13.5056 7.42626C13.5006 7.43838 13.498 7.45136 13.498 7.46447C13.498 7.47758 13.5006 7.49057 13.5056 7.50268C13.5107 7.51479 13.518 7.5258 13.5273 7.53507C13.5366 7.54434 13.5476 7.5517 13.5597 7.55671C13.5718 7.56173 13.5848 7.56431 13.5979 7.56431C13.611 7.56431 13.624 7.56173 13.6361 7.55671C13.6482 7.5517 13.6592 7.54434 13.6685 7.53507H13.668Z" fill="#313341"/>
<path d="M13.7122 8.3204C13.7214 8.32968 13.7324 8.33704 13.7445 8.34206C13.7567 8.34709 13.7697 8.34968 13.7828 8.34968C13.7959 8.34968 13.8089 8.34711 13.821 8.34209C13.8331 8.33708 13.8441 8.32972 13.8534 8.32045C13.8627 8.31118 13.87 8.30017 13.8751 8.28806C13.8801 8.27594 13.8827 8.26295 13.8827 8.24984C13.8827 8.23672 13.8801 8.22373 13.8751 8.21161C13.8701 8.19949 13.8627 8.18848 13.8535 8.1792L13.6682 7.99399C13.6589 7.98475 13.6479 7.97744 13.6358 7.97246C13.6236 7.96749 13.6106 7.96495 13.5975 7.965C13.5844 7.96504 13.5715 7.96767 13.5594 7.97273C13.5473 7.97779 13.5363 7.98519 13.527 7.99449C13.5178 8.00379 13.5105 8.01483 13.5055 8.02696C13.5005 8.03909 13.498 8.05208 13.498 8.06519C13.4981 8.0783 13.5007 8.09128 13.5058 8.10337C13.5108 8.11547 13.5182 8.12645 13.5275 8.13569L13.7122 8.3204Z" fill="#313341"/>
</svg>
