<svg width="24" height="24" viewBox="0 0 24 24" fill="none" xmlns="http://www.w3.org/2000/svg">
<g filter="url(#filter0_f_5352_7506)">
<path d="M8.73115 4.55829C8.70351 4.43117 8.8411 4.33248 8.95265 4.39941L9.85883 4.94312C10.0281 5.0447 10.2437 5.02497 10.3918 4.89434L10.4155 4.87343C11.0027 4.35526 11.8607 4.28459 12.5248 4.69967V4.69967C12.9405 4.95949 13.4562 5.00245 13.9091 4.81502L15.0783 4.33122C15.189 4.2854 15.3056 4.38287 15.2802 4.49997L14.6234 7.52117C14.6086 7.58943 14.5482 7.63812 14.4783 7.63812H9.52036C9.4505 7.63812 9.39009 7.58943 9.37525 7.52117L8.73115 4.55829Z" fill="url(#paint0_linear_5352_7506)"/>
<path d="M8.54742 7.07122C8.62513 7.0246 8.71405 6.99997 8.80467 6.99997H15.1944C15.285 6.99997 15.3739 7.0246 15.4516 7.07122V7.07122C15.8864 7.33213 15.7015 7.99997 15.1944 7.99997H8.80467C8.29756 7.99997 8.11258 7.33213 8.54742 7.07122V7.07122Z" fill="#7D1200"/>
<path d="M9.27244 8.07322C9.3054 8.02726 9.3585 8 9.41506 8H14.8382C14.8959 8 14.9501 8.02823 14.9831 8.07559L17.1889 11.2373C20.0609 15.3538 17.1155 21 12.0962 21V21C7.03976 21 4.1032 15.2797 7.0504 11.171L9.27244 8.07322Z" fill="url(#paint1_linear_5352_7506)"/>
<path d="M11.4182 17.5994V16.9508C11.1355 16.9342 10.8694 16.9009 10.6199 16.851C10.3705 16.7956 10.157 16.7235 9.97963 16.6348V15.3875C10.2291 15.5039 10.5063 15.5981 10.8112 15.6702C11.1161 15.7423 11.4016 15.7783 11.6677 15.7783C11.9449 15.7783 12.1528 15.7506 12.2914 15.6952C12.43 15.6342 12.4993 15.5205 12.4993 15.3542C12.4993 15.1824 12.4078 15.0576 12.2249 14.98C12.0475 14.8968 11.7564 14.7943 11.3517 14.6723C10.9914 14.5559 10.7059 14.4284 10.4952 14.2898C10.2845 14.1512 10.1321 13.9821 10.0378 13.7825C9.94914 13.583 9.90479 13.339 9.90479 13.0508C9.90479 12.1748 10.4093 11.6565 11.4182 11.4957V10.8138H12.7072V11.4791C12.9178 11.5013 13.1174 11.5318 13.3059 11.5706C13.4999 11.6038 13.6663 11.6426 13.8048 11.687V12.9427C13.5443 12.8373 13.2948 12.7625 13.0564 12.7181C12.8181 12.6738 12.5935 12.6516 12.3829 12.6516C12.1389 12.6516 11.931 12.6766 11.7592 12.7265C11.5873 12.7763 11.5014 12.8817 11.5014 13.0424C11.5014 13.181 11.5735 13.2864 11.7176 13.3584C11.8673 13.425 12.1306 13.5081 12.5076 13.6079C12.9456 13.7243 13.2782 13.8657 13.5055 14.032C13.7383 14.1983 13.8963 14.3924 13.9795 14.6141C14.0626 14.8303 14.1042 15.077 14.1042 15.3542C14.1042 15.7367 13.9878 16.061 13.755 16.3271C13.5221 16.5933 13.1729 16.779 12.7072 16.8843V17.5994H11.4182Z" fill="#7D1200"/>
<path d="M11.4182 17.5994V16.9508C11.1355 16.9342 10.8694 16.9009 10.6199 16.851C10.3705 16.7956 10.157 16.7235 9.97963 16.6348V15.3875C10.2291 15.5039 10.5063 15.5981 10.8112 15.6702C11.1161 15.7423 11.4016 15.7783 11.6677 15.7783C11.9449 15.7783 12.1528 15.7506 12.2914 15.6952C12.43 15.6342 12.4993 15.5205 12.4993 15.3542C12.4993 15.1824 12.4078 15.0576 12.2249 14.98C12.0475 14.8968 11.7564 14.7943 11.3517 14.6723C10.9914 14.5559 10.7059 14.4284 10.4952 14.2898C10.2845 14.1512 10.1321 13.9821 10.0378 13.7825C9.94914 13.583 9.90479 13.339 9.90479 13.0508C9.90479 12.1748 10.4093 11.6565 11.4182 11.4957V10.8138H12.7072V11.4791C12.9178 11.5013 13.1174 11.5318 13.3059 11.5706C13.4999 11.6038 13.6663 11.6426 13.8048 11.687V12.9427C13.5443 12.8373 13.2948 12.7625 13.0564 12.7181C12.8181 12.6738 12.5935 12.6516 12.3829 12.6516C12.1389 12.6516 11.931 12.6766 11.7592 12.7265C11.5873 12.7763 11.5014 12.8817 11.5014 13.0424C11.5014 13.181 11.5735 13.2864 11.7176 13.3584C11.8673 13.425 12.1306 13.5081 12.5076 13.6079C12.9456 13.7243 13.2782 13.8657 13.5055 14.032C13.7383 14.1983 13.8963 14.3924 13.9795 14.6141C14.0626 14.8303 14.1042 15.077 14.1042 15.3542C14.1042 15.7367 13.9878 16.061 13.755 16.3271C13.5221 16.5933 13.1729 16.779 12.7072 16.8843V17.5994H11.4182Z" fill="url(#paint2_linear_5352_7506)" fill-opacity="0.2"/>
</g>
<path d="M8.73115 4.55829C8.70351 4.43117 8.8411 4.33248 8.95265 4.39941L9.85883 4.94312C10.0281 5.0447 10.2437 5.02497 10.3918 4.89434L10.4155 4.87343C11.0027 4.35526 11.8607 4.28459 12.5248 4.69967V4.69967C12.9405 4.95949 13.4562 5.00245 13.9091 4.81502L15.0783 4.33122C15.189 4.2854 15.3056 4.38287 15.2802 4.49997L14.6234 7.52117C14.6086 7.58943 14.5482 7.63812 14.4783 7.63812H9.52036C9.4505 7.63812 9.39009 7.58943 9.37525 7.52117L8.73115 4.55829Z" fill="url(#paint3_linear_5352_7506)"/>
<path d="M9.27244 8.07322C9.3054 8.02726 9.3585 8 9.41506 8H14.8382C14.8959 8 14.9501 8.02823 14.9831 8.07559L17.1889 11.2373C20.0609 15.3538 17.1155 21 12.0962 21V21C7.03976 21 4.1032 15.2797 7.0504 11.171L9.27244 8.07322Z" fill="url(#paint4_linear_5352_7506)"/>
<path d="M11.4182 17.5994V16.9508C11.1355 16.9342 10.8694 16.9009 10.6199 16.851C10.3705 16.7956 10.157 16.7235 9.97963 16.6348V15.3875C10.2291 15.5039 10.5063 15.5981 10.8112 15.6702C11.1161 15.7423 11.4016 15.7783 11.6677 15.7783C11.9449 15.7783 12.1528 15.7506 12.2914 15.6952C12.43 15.6342 12.4993 15.5205 12.4993 15.3542C12.4993 15.1824 12.4078 15.0576 12.2249 14.98C12.0475 14.8968 11.7564 14.7943 11.3517 14.6723C10.9914 14.5559 10.7059 14.4284 10.4952 14.2898C10.2845 14.1512 10.1321 13.9821 10.0378 13.7825C9.94914 13.583 9.90479 13.339 9.90479 13.0508C9.90479 12.1748 10.4093 11.6565 11.4182 11.4957V10.8138H12.7072V11.4791C12.9178 11.5013 13.1174 11.5318 13.3059 11.5706C13.4999 11.6038 13.6663 11.6426 13.8048 11.687V12.9427C13.5443 12.8373 13.2948 12.7625 13.0564 12.7181C12.8181 12.6738 12.5935 12.6516 12.3829 12.6516C12.1389 12.6516 11.931 12.6766 11.7592 12.7265C11.5873 12.7763 11.5014 12.8817 11.5014 13.0424C11.5014 13.181 11.5735 13.2864 11.7176 13.3584C11.8673 13.425 12.1306 13.5081 12.5076 13.6079C12.9456 13.7243 13.2782 13.8657 13.5055 14.032C13.7383 14.1983 13.8963 14.3924 13.9795 14.6141C14.0626 14.8303 14.1042 15.077 14.1042 15.3542C14.1042 15.7367 13.9878 16.061 13.755 16.3271C13.5221 16.5933 13.1729 16.779 12.7072 16.8843V17.5994H11.4182Z" fill="#6D1D10"/>
<path d="M11.4182 17.5994V16.9508C11.1355 16.9342 10.8694 16.9009 10.6199 16.851C10.3705 16.7956 10.157 16.7235 9.97963 16.6348V15.3875C10.2291 15.5039 10.5063 15.5981 10.8112 15.6702C11.1161 15.7423 11.4016 15.7783 11.6677 15.7783C11.9449 15.7783 12.1528 15.7506 12.2914 15.6952C12.43 15.6342 12.4993 15.5205 12.4993 15.3542C12.4993 15.1824 12.4078 15.0576 12.2249 14.98C12.0475 14.8968 11.7564 14.7943 11.3517 14.6723C10.9914 14.5559 10.7059 14.4284 10.4952 14.2898C10.2845 14.1512 10.1321 13.9821 10.0378 13.7825C9.94914 13.583 9.90479 13.339 9.90479 13.0508C9.90479 12.1748 10.4093 11.6565 11.4182 11.4957V10.8138H12.7072V11.4791C12.9178 11.5013 13.1174 11.5318 13.3059 11.5706C13.4999 11.6038 13.6663 11.6426 13.8048 11.687V12.9427C13.5443 12.8373 13.2948 12.7625 13.0564 12.7181C12.8181 12.6738 12.5935 12.6516 12.3829 12.6516C12.1389 12.6516 11.931 12.6766 11.7592 12.7265C11.5873 12.7763 11.5014 12.8817 11.5014 13.0424C11.5014 13.181 11.5735 13.2864 11.7176 13.3584C11.8673 13.425 12.1306 13.5081 12.5076 13.6079C12.9456 13.7243 13.2782 13.8657 13.5055 14.032C13.7383 14.1983 13.8963 14.3924 13.9795 14.6141C14.0626 14.8303 14.1042 15.077 14.1042 15.3542C14.1042 15.7367 13.9878 16.061 13.755 16.3271C13.5221 16.5933 13.1729 16.779 12.7072 16.8843V17.5994H11.4182Z" fill="url(#paint5_linear_5352_7506)" fill-opacity="0.2"/>
<path d="M8.95143 7.6085C8.99472 7.58902 9.04165 7.57895 9.08912 7.57895H14.91C14.9575 7.57895 15.0044 7.58902 15.0477 7.6085V7.6085C15.3774 7.75686 15.2715 8.25 14.91 8.25H9.08912C8.72759 8.25 8.62174 7.75686 8.95143 7.6085V7.6085Z" fill="#6D1D10"/>
<defs>
<filter id="filter0_f_5352_7506" x="3.87549" y="2.31966" width="16.4409" height="20.6803" filterUnits="userSpaceOnUse" color-interpolation-filters="sRGB">
<feFlood flood-opacity="0" result="BackgroundImageFix"/>
<feBlend mode="normal" in="SourceGraphic" in2="BackgroundImageFix" result="shape"/>
<feGaussianBlur stdDeviation="1" result="effect1_foregroundBlur_5352_7506"/>
</filter>
<linearGradient id="paint0_linear_5352_7506" x1="9.84616" y1="3.92575" x2="13.4843" y2="7.63812" gradientUnits="userSpaceOnUse">
<stop stop-color="#FF7A00"/>
<stop offset="1" stop-color="#FFC52E"/>
</linearGradient>
<linearGradient id="paint1_linear_5352_7506" x1="1.05882" y1="20.0577" x2="12.0211" y2="2.79851" gradientUnits="userSpaceOnUse">
<stop stop-color="#FF7A00"/>
<stop offset="1" stop-color="#FFD337"/>
</linearGradient>
<linearGradient id="paint2_linear_5352_7506" x1="8.13764" y1="15.3994" x2="15.2654" y2="11.3158" gradientUnits="userSpaceOnUse">
<stop stop-color="#F5A200"/>
<stop offset="1" stop-color="#FFD02B" stop-opacity="0"/>
</linearGradient>
<linearGradient id="paint3_linear_5352_7506" x1="14.6837" y1="6.23684" x2="10.21" y2="4.44737" gradientUnits="userSpaceOnUse">
<stop stop-color="#FCAE39"/>
<stop offset="1" stop-color="#FFD25D"/>
</linearGradient>
<linearGradient id="paint4_linear_5352_7506" x1="8.42049" y1="12.0526" x2="17.0108" y2="16.6774" gradientUnits="userSpaceOnUse">
<stop stop-color="#FFE767"/>
<stop offset="1" stop-color="#FDAD12"/>
</linearGradient>
<linearGradient id="paint5_linear_5352_7506" x1="8.13764" y1="15.3994" x2="15.2654" y2="11.3158" gradientUnits="userSpaceOnUse">
<stop stop-color="#F5A200"/>
<stop offset="1" stop-color="#FFD02B" stop-opacity="0"/>
</linearGradient>
</defs>
</svg>
