<svg width="24" height="24" viewBox="0 0 24 24" fill="none" xmlns="http://www.w3.org/2000/svg">
<g clip-path="url(#clip0_5352_7120)">
<g filter="url(#filter0_iif_5352_7120)">
<path fill-rule="evenodd" clip-rule="evenodd" d="M2.94419 14.0499C2.58318 13.648 2.61634 13.0295 3.01825 12.6685L13.5332 3.22366C13.9352 2.86265 14.5536 2.89581 14.9146 3.29772L15.8718 4.36334C15.9137 4.40997 15.9065 4.48218 15.8599 4.52406C15.2371 5.08346 15.2227 6.08294 15.8277 6.75646C16.4326 7.42997 17.4279 7.52248 18.0507 6.96308C18.0973 6.9212 18.1699 6.92182 18.2118 6.96844L19 7.84601C19.3611 8.24792 19.3279 8.86639 18.926 9.2274L8.41099 18.6723C8.00908 19.0333 7.39061 19.0001 7.0296 18.5982L6.3138 17.8013C6.22875 17.7066 6.2327 17.5636 6.30422 17.4584C6.69436 16.8841 6.63257 16.0628 6.1118 15.4831C5.59104 14.9033 4.78105 14.754 4.1684 15.0805C4.05609 15.1404 3.91348 15.129 3.82843 15.0344L2.94419 14.0499ZM12.077 5.02459C12.1222 5.07483 12.1199 5.15044 12.072 5.19347C12.0241 5.23651 11.9487 5.23066 11.9035 5.18042C11.8584 5.13018 11.8607 5.05457 11.9086 5.01154C11.9565 4.96851 12.0319 4.97436 12.077 5.02459ZM12.3991 5.55723C12.447 5.5142 12.4492 5.43859 12.4041 5.38835C12.359 5.33811 12.2835 5.33227 12.2356 5.3753C12.1877 5.41833 12.1855 5.49394 12.2306 5.54418C12.2757 5.59442 12.3511 5.60026 12.3991 5.55723ZM12.7311 5.7523C12.7763 5.80254 12.774 5.87815 12.7261 5.92118C12.6782 5.96421 12.6028 5.95837 12.5577 5.90813C12.5125 5.85789 12.5148 5.78228 12.5627 5.73925C12.6106 5.69622 12.686 5.70206 12.7311 5.7523ZM13.0532 6.28489C13.1011 6.24186 13.1033 6.16625 13.0582 6.11601C13.0131 6.06577 12.9377 6.05993 12.8898 6.10296C12.8419 6.14599 12.8396 6.2216 12.8847 6.27184C12.9299 6.32208 13.0053 6.32792 13.0532 6.28489ZM13.3845 6.47996C13.4296 6.5302 13.4274 6.60581 13.3794 6.64884C13.3315 6.69187 13.2561 6.68603 13.211 6.63579C13.1659 6.58555 13.1681 6.50994 13.216 6.46691C13.2639 6.42388 13.3394 6.42972 13.3845 6.47996ZM13.7065 7.0126C13.7544 6.96957 13.7567 6.89395 13.7115 6.84372C13.6664 6.79348 13.591 6.78763 13.5431 6.83066C13.4952 6.8737 13.4929 6.94931 13.5381 6.99954C13.5832 7.04978 13.6586 7.05563 13.7065 7.0126ZM14.0386 7.20772C14.0837 7.25796 14.0815 7.33357 14.0336 7.3766C13.9857 7.41963 13.9102 7.41379 13.8651 7.36355C13.82 7.31331 13.8222 7.2377 13.8701 7.19467C13.9181 7.15164 13.9935 7.15748 14.0386 7.20772ZM14.3598 7.74055C14.4077 7.69752 14.41 7.62191 14.3649 7.57167C14.3197 7.52143 14.2443 7.51559 14.1964 7.55862C14.1485 7.60165 14.1463 7.67726 14.1914 7.7275C14.2365 7.77774 14.3119 7.78358 14.3598 7.74055ZM14.6919 7.93538C14.7371 7.98562 14.7348 8.06123 14.6869 8.10426C14.639 8.14729 14.5636 8.14144 14.5184 8.09121C14.4733 8.04097 14.4756 7.96536 14.5235 7.92232C14.5714 7.87929 14.6468 7.88514 14.6919 7.93538ZM15.014 8.46821C15.0619 8.42518 15.0641 8.34957 15.019 8.29933C14.9739 8.24909 14.8984 8.24325 14.8505 8.28628C14.8026 8.32931 14.8004 8.40492 14.8455 8.45516C14.8906 8.5054 14.9661 8.51124 15.014 8.46821ZM15.3461 8.66308C15.3912 8.71332 15.3889 8.78893 15.341 8.83196C15.2931 8.875 15.2177 8.86915 15.1726 8.81891C15.1274 8.76867 15.1297 8.69306 15.1776 8.65003C15.2255 8.607 15.3009 8.61285 15.3461 8.66308ZM15.6673 9.19597C15.7152 9.15293 15.7174 9.07732 15.6723 9.02709C15.6272 8.97685 15.5518 8.971 15.5039 9.01403C15.456 9.05707 15.4537 9.13268 15.4988 9.18291C15.544 9.23315 15.6194 9.239 15.6673 9.19597ZM15.9994 9.39074C16.0445 9.44098 16.0423 9.51659 15.9943 9.55962C15.9464 9.60265 15.871 9.59681 15.8259 9.54657C15.7808 9.49633 15.783 9.42072 15.8309 9.37769C15.8788 9.33466 15.9543 9.3405 15.9994 9.39074ZM16.3214 9.92362C16.3693 9.88059 16.3716 9.80498 16.3264 9.75474C16.2813 9.70451 16.2059 9.69866 16.158 9.74169C16.1101 9.78472 16.1078 9.86033 16.153 9.91057C16.1981 9.96081 16.2735 9.96666 16.3214 9.92362ZM16.6527 10.1187C16.6978 10.1689 16.6956 10.2445 16.6477 10.2876C16.5998 10.3306 16.5244 10.3248 16.4792 10.2745C16.4341 10.2243 16.4364 10.1487 16.4843 10.1056C16.5322 10.0626 16.6076 10.0685 16.6527 10.1187ZM16.9747 10.6513C17.0226 10.6083 17.0249 10.5327 16.9798 10.4825C16.9346 10.4322 16.8592 10.4264 16.8113 10.4694C16.7634 10.5124 16.7612 10.588 16.8063 10.6383C16.8514 10.6885 16.9268 10.6944 16.9747 10.6513Z" fill="url(#paint0_linear_5352_7120)"/>
</g>
<g filter="url(#filter1_ii_5352_7120)">
<path fill-rule="evenodd" clip-rule="evenodd" d="M2.94468 14.05C2.58367 13.6481 2.61683 13.0296 3.01874 12.6686L13.5337 3.22372C13.9356 2.86272 14.5541 2.89587 14.9151 3.29779L15.8721 4.36321C15.9141 4.40989 15.9069 4.48218 15.8602 4.52411C15.2374 5.08351 15.223 6.08299 15.828 6.75651C16.4329 7.43002 17.4282 7.52253 18.051 6.96313C18.0977 6.9212 18.1703 6.92182 18.2123 6.96849L19.0005 7.84607C19.3615 8.24798 19.3284 8.86645 18.9265 9.22746L8.41148 18.6723C8.00956 19.0333 7.39109 19.0002 7.03009 18.5983L6.31418 17.8013C6.22914 17.7066 6.23308 17.5636 6.30458 17.4583C6.69465 16.8841 6.63284 16.0628 6.1121 15.4831C5.59137 14.9034 4.78143 14.7541 4.1688 15.0805C4.05649 15.1404 3.91389 15.129 3.82885 15.0343L2.94468 14.05ZM12.0773 5.02464C12.1225 5.07488 12.1202 5.15049 12.0723 5.19352C12.0244 5.23655 11.949 5.23071 11.9038 5.18047C11.8587 5.13023 11.861 5.05462 11.9089 5.01159C11.9568 4.96856 12.0322 4.9744 12.0773 5.02464ZM12.3994 5.55728C12.4473 5.51425 12.4495 5.43864 12.4044 5.3884C12.3593 5.33816 12.2838 5.33232 12.2359 5.37535C12.188 5.41838 12.1858 5.49399 12.2309 5.54423C12.276 5.59447 12.3514 5.60031 12.3994 5.55728ZM12.7314 5.75235C12.7766 5.80259 12.7743 5.8782 12.7264 5.92123C12.6785 5.96426 12.6031 5.95842 12.558 5.90818C12.5128 5.85794 12.5151 5.78233 12.563 5.7393C12.6109 5.69627 12.6863 5.70211 12.7314 5.75235ZM13.0535 6.28494C13.1014 6.24191 13.1036 6.1663 13.0585 6.11606C13.0134 6.06582 12.938 6.05998 12.8901 6.10301C12.8422 6.14604 12.8399 6.22165 12.885 6.27189C12.9302 6.32213 13.0056 6.32797 13.0535 6.28494ZM13.3848 6.48001C13.4299 6.53025 13.4277 6.60586 13.3797 6.64889C13.3318 6.69192 13.2564 6.68608 13.2113 6.63584C13.1662 6.5856 13.1684 6.50999 13.2163 6.46696C13.2642 6.42393 13.3397 6.42977 13.3848 6.48001ZM13.7068 7.01265C13.7547 6.96961 13.757 6.894 13.7118 6.84377C13.6667 6.79353 13.5913 6.78768 13.5434 6.83071C13.4955 6.87375 13.4932 6.94936 13.5384 6.99959C13.5835 7.04983 13.6589 7.05568 13.7068 7.01265ZM14.0389 7.20777C14.084 7.25801 14.0818 7.33362 14.0339 7.37665C13.986 7.41968 13.9105 7.41383 13.8654 7.3636C13.8203 7.31336 13.8225 7.23775 13.8704 7.19472C13.9184 7.15168 13.9938 7.15753 14.0389 7.20777ZM14.3601 7.7406C14.408 7.69757 14.4103 7.62196 14.3652 7.57172C14.32 7.52148 14.2446 7.51564 14.1967 7.55867C14.1488 7.6017 14.1466 7.67731 14.1917 7.72755C14.2368 7.77779 14.3122 7.78363 14.3601 7.7406ZM14.6922 7.93543C14.7374 7.98566 14.7351 8.06127 14.6872 8.10431C14.6393 8.14734 14.5639 8.14149 14.5187 8.09125C14.4736 8.04102 14.4759 7.96541 14.5238 7.92237C14.5717 7.87934 14.6471 7.88519 14.6922 7.93543ZM15.0143 8.46826C15.0622 8.42523 15.0644 8.34962 15.0193 8.29938C14.9742 8.24914 14.8987 8.2433 14.8508 8.28633C14.8029 8.32936 14.8007 8.40497 14.8458 8.45521C14.8909 8.50545 14.9664 8.51129 15.0143 8.46826ZM15.3464 8.66313C15.3915 8.71337 15.3892 8.78898 15.3413 8.83201C15.2934 8.87504 15.218 8.8692 15.1729 8.81896C15.1277 8.76872 15.13 8.69311 15.1779 8.65008C15.2258 8.60705 15.3012 8.61289 15.3464 8.66313ZM15.6676 9.19601C15.7155 9.15298 15.7177 9.07737 15.6726 9.02713C15.6275 8.9769 15.5521 8.97105 15.5042 9.01408C15.4563 9.05711 15.454 9.13272 15.4991 9.18296C15.5443 9.2332 15.6197 9.23905 15.6676 9.19601ZM15.9997 9.39079C16.0448 9.44103 16.0426 9.51664 15.9946 9.55967C15.9467 9.6027 15.8713 9.59686 15.8262 9.54662C15.7811 9.49638 15.7833 9.42077 15.8312 9.37774C15.8791 9.33471 15.9546 9.34055 15.9997 9.39079ZM16.3217 9.92367C16.3696 9.88064 16.3719 9.80503 16.3267 9.75479C16.2816 9.70455 16.2062 9.69871 16.1583 9.74174C16.1104 9.78477 16.1081 9.86038 16.1533 9.91062C16.1984 9.96086 16.2738 9.9667 16.3217 9.92367ZM16.653 10.1187C16.6981 10.169 16.6959 10.2446 16.648 10.2876C16.6001 10.3307 16.5247 10.3248 16.4795 10.2746C16.4344 10.2243 16.4367 10.1487 16.4846 10.1057C16.5325 10.0627 16.6079 10.0685 16.653 10.1187ZM16.975 10.6514C17.0229 10.6083 17.0252 10.5327 16.9801 10.4825C16.9349 10.4323 16.8595 10.4264 16.8116 10.4694C16.7637 10.5125 16.7615 10.5881 16.8066 10.6383C16.8517 10.6886 16.9271 10.6944 16.975 10.6514Z" fill="url(#paint1_linear_5352_7120)"/>
</g>
<g filter="url(#filter2_i_5352_7120)">
<rect x="5.13916" y="12.8851" width="9.29284" height="5.13552" rx="0.244548" transform="rotate(-41.9311 5.13916 12.8851)" fill="url(#paint2_linear_5352_7120)"/>
</g>
<path d="M7.69194 13.3115C7.64978 13.2646 7.66309 13.2102 7.73186 13.1485C7.76133 13.122 7.81853 13.0726 7.90345 13.0003C7.99906 12.9223 8.07034 12.8622 8.11728 12.82C8.15548 12.7857 8.19992 12.7419 8.25057 12.6885C8.28573 12.6529 8.30822 12.6308 8.31804 12.6219C8.38004 12.5702 8.4406 12.5355 8.49973 12.5179C8.51664 12.5126 8.53235 12.5103 8.54685 12.5111C8.56136 12.5119 8.57645 12.521 8.59214 12.5385C8.61371 12.5625 8.6247 12.5901 8.62511 12.6213C8.62453 12.6514 8.61333 12.6762 8.5915 12.6958C8.56748 12.7174 8.52961 12.7455 8.47788 12.7801C8.43063 12.8088 8.39172 12.8368 8.36116 12.8643C8.33168 12.8907 8.30979 12.9114 8.29549 12.9262C8.32457 12.9652 8.4004 13.0529 8.52296 13.1893C8.66905 13.352 8.82202 13.5124 8.98186 13.6706L9.02779 13.7151C9.06799 13.7599 9.06243 13.8053 9.01113 13.8514C8.97074 13.8877 8.93512 13.9029 8.90426 13.8971C8.87242 13.8902 8.83885 13.8671 8.80355 13.8278C8.73394 13.7503 8.64498 13.6556 8.53668 13.5439C8.44603 13.4517 8.38257 13.3855 8.34629 13.3451C8.32178 13.3178 8.25004 13.2313 8.13109 13.0857L7.94098 13.2594C7.87986 13.3143 7.83238 13.3471 7.79856 13.3578C7.76376 13.3673 7.72822 13.3519 7.69194 13.3115Z" fill="black"/>
<path d="M8.67528 12.2537C8.71642 12.2227 8.75903 12.2032 8.8031 12.1951C8.84619 12.186 8.88293 12.1984 8.91333 12.2322C8.93588 12.2573 8.94201 12.2883 8.93172 12.3251C8.92155 12.3599 8.90008 12.392 8.86734 12.4214C8.83568 12.4499 8.80649 12.4613 8.77978 12.4557C8.75306 12.4501 8.73186 12.4386 8.71617 12.4211C8.68676 12.3884 8.66552 12.3581 8.65246 12.3304C8.64049 12.3017 8.6481 12.2762 8.67528 12.2537ZM9.45781 12.8614L9.50046 12.9089C9.5387 12.9515 9.57607 12.9909 9.61257 13.0271C9.64918 13.0613 9.68683 13.0955 9.72551 13.1298C9.73423 13.1417 9.73633 13.1605 9.73184 13.1863C9.72636 13.2109 9.71762 13.2286 9.70561 13.2394C9.68487 13.258 9.66015 13.2733 9.63146 13.2853C9.60287 13.2952 9.581 13.2961 9.56585 13.288C9.52793 13.259 9.49671 13.2308 9.4722 13.2035C9.3918 13.114 9.29886 13.016 9.19339 12.9096C9.10078 12.8153 9.03683 12.7485 9.00153 12.7092C8.98388 12.6895 8.97851 12.6638 8.98541 12.6319C8.99231 12.6001 9.00668 12.5744 9.02851 12.5548C9.06017 12.5263 9.08837 12.5138 9.11312 12.5172C9.13897 12.5196 9.16562 12.5361 9.19307 12.5667L9.45781 12.8614Z" fill="black"/>
<path d="M10.045 11.9346C10.0881 11.9827 10.0851 12.0287 10.036 12.0729C10.0196 12.0876 10.0026 12.096 9.98477 12.0982C9.96699 12.1003 9.94469 12.0997 9.91786 12.0961C9.85276 12.0895 9.8082 12.097 9.78418 12.1186C9.75253 12.147 9.72975 12.1842 9.71586 12.2303C9.70305 12.2753 9.70257 12.3231 9.71441 12.3736C9.72625 12.4241 9.75079 12.4701 9.78805 12.5115C9.82923 12.5574 9.87228 12.5878 9.9172 12.6026C9.96321 12.6165 10.0151 12.6172 10.0729 12.6047C10.094 12.5996 10.1158 12.5909 10.1382 12.5786C10.1618 12.5654 10.1807 12.5523 10.1949 12.5396C10.2265 12.5112 10.2551 12.4628 10.2806 12.3946C10.2902 12.3701 10.2991 12.3504 10.3071 12.3352C10.3152 12.3201 10.3258 12.3066 10.3389 12.2948C10.3509 12.284 10.3695 12.2772 10.3946 12.2744C10.4197 12.2716 10.4396 12.2784 10.4543 12.2948C10.4837 12.3275 10.4934 12.3691 10.4834 12.4195C10.4725 12.4688 10.45 12.5195 10.416 12.5717C10.3822 12.6218 10.3451 12.6651 10.3047 12.7013C10.2403 12.7592 10.167 12.7984 10.0848 12.8189C10.0038 12.8385 9.92384 12.8373 9.84501 12.8154C9.7652 12.7924 9.69588 12.7482 9.63705 12.6827C9.5743 12.6128 9.53277 12.5347 9.51246 12.4485C9.49215 12.3622 9.49403 12.2786 9.5181 12.1978C9.54218 12.117 9.58587 12.0482 9.64918 11.9913C9.6852 11.959 9.7282 11.9322 9.77817 11.911C9.82814 11.8898 9.8775 11.8799 9.92625 11.8815C9.975 11.8831 10.0146 11.9008 10.045 11.9346Z" fill="black"/>
<path d="M11.2452 11.5755C11.2765 11.573 11.3013 11.5753 11.3196 11.5826C11.3379 11.5898 11.3559 11.6032 11.3736 11.6229C11.3883 11.6392 11.3933 11.6624 11.3886 11.6922C11.384 11.72 11.3746 11.7403 11.3604 11.7531C11.3484 11.7639 11.3307 11.7728 11.3075 11.7798C11.2843 11.7869 11.2639 11.7895 11.2463 11.7875C11.2255 11.7884 11.1804 11.7855 11.1112 11.7787C11.043 11.7709 10.991 11.7634 10.955 11.7563C10.8716 11.7424 10.8298 11.7355 10.8298 11.7355L10.7093 11.7166L10.681 11.8959L10.8478 12.0685C10.8743 12.0979 10.8853 12.1255 10.8808 12.1513C10.8774 12.176 10.8686 12.1948 10.8544 12.2075C10.8337 12.2262 10.8117 12.239 10.7884 12.2461C10.7663 12.2522 10.7492 12.2518 10.7371 12.2449C10.6859 12.212 10.6284 12.1601 10.5646 12.0891C10.445 11.956 10.3516 11.8476 10.2844 11.764C10.1995 11.6607 10.1174 11.5649 10.038 11.4764C10.0135 11.4492 9.97636 11.4144 9.92667 11.3723C9.91675 11.3634 9.9009 11.3491 9.87911 11.3292C9.85731 11.3093 9.83857 11.2907 9.82288 11.2732C9.80033 11.2481 9.79087 11.2211 9.7945 11.1922C9.79922 11.1623 9.81522 11.1351 9.84251 11.1106C9.86434 11.091 9.88818 11.0824 9.91403 11.0848C9.93998 11.0852 9.96375 11.0974 9.98532 11.1214C10.0177 11.1574 10.0614 11.2039 10.1165 11.2609C10.1717 11.3179 10.2115 11.36 10.236 11.3873C10.2664 11.4212 10.306 11.4674 10.3548 11.5262C10.3801 11.5587 10.3996 11.5826 10.4133 11.5979C10.4564 11.6459 10.4928 11.6853 10.5223 11.7159C10.5253 11.6402 10.5356 11.5462 10.553 11.4339C10.5706 11.3195 10.5881 11.2348 10.6056 11.1796C10.6245 11.1172 10.6384 11.0821 10.6471 11.0743C10.67 11.0537 10.6941 11.0409 10.7193 11.0361C10.7445 11.0312 10.7659 11.0386 10.7836 11.0582C10.8012 11.0779 10.8122 11.0956 10.8166 11.1114C10.8199 11.1261 10.8194 11.1453 10.815 11.169L10.7421 11.5126C10.841 11.5283 10.9425 11.5436 11.0466 11.5586C11.1498 11.5724 11.216 11.578 11.2452 11.5755Z" fill="black"/>
<path d="M11.204 11.2042C11.1441 11.1376 11.1094 11.0693 11.0996 10.9991C11.0889 10.9279 11.0921 10.8491 11.1092 10.7628C11.1147 10.7381 11.132 10.7058 11.1611 10.6658C11.1893 10.6247 11.217 10.5919 11.2443 10.5674C11.2771 10.538 11.3178 10.5142 11.3666 10.496C11.4155 10.4758 11.4592 10.4641 11.4978 10.461C11.5647 10.4542 11.6234 10.4636 11.674 10.4891C11.7236 10.5136 11.7724 10.5526 11.8205 10.6061C11.8411 10.629 11.8481 10.6631 11.8415 10.7085C11.835 10.7518 11.817 10.7867 11.7876 10.8132L11.7239 10.8674C11.6922 10.8958 11.6479 10.9376 11.5909 10.9928L11.558 11.0253C11.5359 11.049 11.5189 11.0663 11.5069 11.0771C11.4894 11.0928 11.4635 11.1122 11.429 11.1353C11.4794 11.1826 11.5348 11.2059 11.5951 11.2049C11.6544 11.2029 11.7038 11.1843 11.7431 11.149C11.8118 11.0872 11.8476 11.0304 11.8504 10.9786C11.8586 10.9417 11.8646 10.9176 11.8683 10.9063C11.872 10.8951 11.882 10.8821 11.8984 10.8674C11.9159 10.8517 11.9385 10.8462 11.9663 10.8508C11.9941 10.8554 12.0154 10.8659 12.0301 10.8823C12.0468 10.9008 12.0525 10.9302 12.0472 10.9705C12.042 11.0086 12.0297 11.0552 12.0101 11.1103C11.9972 11.1377 11.9757 11.1708 11.9455 11.2097C11.9154 11.2486 11.8883 11.2788 11.8643 11.3004C11.8261 11.3347 11.7737 11.3621 11.7072 11.3824C11.6396 11.4016 11.5822 11.4079 11.5347 11.4012C11.4873 11.3945 11.4323 11.3739 11.3697 11.3394C11.3082 11.3039 11.253 11.2588 11.204 11.2042ZM11.4901 10.8673C11.5676 10.7977 11.6219 10.744 11.653 10.7062C11.6224 10.6765 11.5895 10.6597 11.5544 10.6557C11.5183 10.6507 11.4786 10.6548 11.4353 10.668C11.4216 10.6725 11.4099 10.6771 11.4003 10.6817C11.3907 10.6864 11.381 10.6932 11.3712 10.702C11.3209 10.7471 11.2906 10.799 11.2802 10.8577C11.2709 10.9153 11.2821 10.9684 11.3138 11.0169C11.3713 10.9711 11.4301 10.9213 11.4901 10.8673Z" fill="black"/>
<path d="M11.8286 10.297C11.8114 10.3085 11.793 10.3133 11.7733 10.3112C11.7548 10.3081 11.7387 10.2989 11.7249 10.2836C11.7181 10.276 11.7124 10.2663 11.7078 10.2547C11.7043 10.242 11.7035 10.229 11.7052 10.2156C11.7086 10.1908 11.7174 10.1622 11.7316 10.1297C11.7479 10.0973 11.7551 10.0691 11.7533 10.0451C11.7515 10.0211 11.7329 9.98949 11.6976 9.9502C11.6829 9.93382 11.6691 9.92061 11.6561 9.91057C11.6442 9.89954 11.6354 9.89075 11.6295 9.8842C11.6079 9.86019 11.6005 9.83433 11.6071 9.80664C11.6138 9.77894 11.6286 9.7548 11.6515 9.73421C11.6799 9.70871 11.7054 9.69865 11.728 9.70402C11.7516 9.7084 11.7806 9.7297 11.8149 9.7679C11.8483 9.80502 11.8756 9.83869 11.8968 9.86892C11.9171 9.89806 11.931 9.9279 11.9388 9.95845C11.954 9.94472 11.9782 9.92108 12.0111 9.88752C12.0572 9.8422 12.0895 9.8112 12.1081 9.79453C12.1266 9.77786 12.1474 9.76807 12.1704 9.76514C12.1925 9.76113 12.2108 9.76731 12.2255 9.78368C12.2461 9.80661 12.2564 9.82794 12.2564 9.84768C12.2564 9.86742 12.2486 9.88726 12.2329 9.90721C12.199 9.95941 12.142 10.0234 12.0621 10.0991C12.0982 10.1436 12.1388 10.191 12.1839 10.2412C12.2594 10.3253 12.3221 10.3853 12.3722 10.4212C12.4101 10.4502 12.444 10.4661 12.474 10.4687C12.5041 10.4693 12.535 10.4554 12.5667 10.4269C12.583 10.4122 12.5942 10.3983 12.6001 10.3851C12.6071 10.3709 12.6106 10.3628 12.6107 10.3607C12.617 10.3413 12.6255 10.3267 12.6365 10.3169C12.6517 10.3032 12.6671 10.2983 12.6824 10.3022C12.6989 10.3052 12.7145 10.3149 12.7292 10.3312C12.7567 10.3618 12.7633 10.4022 12.7492 10.4523C12.7341 10.5014 12.7009 10.549 12.6496 10.595C12.5917 10.647 12.5274 10.6742 12.4566 10.6766C12.386 10.677 12.3213 10.6522 12.2627 10.6023C12.2057 10.5608 12.1355 10.4937 12.0522 10.4009C12.0159 10.3605 11.9696 10.3045 11.9131 10.2329L11.8286 10.297Z" fill="black"/>
<g filter="url(#filter3_iif_5352_7120)">
<path fill-rule="evenodd" clip-rule="evenodd" d="M3.4545 13.9789C3.29733 13.4621 3.58893 12.9157 4.10581 12.7585L17.6285 8.6466C18.1454 8.48943 18.6918 8.78103 18.849 9.2979L19.2655 10.6677C19.2838 10.7278 19.2466 10.7904 19.1865 10.8087C18.3856 11.0523 17.9498 11.9519 18.2132 12.818C18.4766 13.6842 19.3393 14.1889 20.1403 13.9454C20.2004 13.9271 20.2661 13.9585 20.2844 14.0186L20.6276 15.1472C20.7847 15.6641 20.4931 16.2105 19.9763 16.3676L6.45357 20.4795C5.93669 20.6367 5.39027 20.3451 5.23311 19.8282L4.92148 18.8034C4.88445 18.6816 4.94852 18.5537 5.05786 18.4885C5.65428 18.1332 5.94566 17.3628 5.71893 16.6171C5.4922 15.8715 4.82127 15.3937 4.128 15.4305C4.00091 15.4373 3.87647 15.3667 3.83944 15.2449L3.4545 13.9789ZM15.5476 9.66272C15.5673 9.72733 15.5332 9.79489 15.4716 9.81363C15.41 9.83236 15.3442 9.79517 15.3245 9.73056C15.3049 9.66595 15.3389 9.59839 15.4005 9.57966C15.4621 9.56092 15.528 9.59811 15.5476 9.66272ZM15.6143 10.2816C15.6759 10.2629 15.7099 10.1953 15.6903 10.1307C15.6706 10.0661 15.6047 10.0289 15.5431 10.0476C15.4815 10.0664 15.4475 10.1339 15.4672 10.1985C15.4868 10.2632 15.5527 10.3003 15.6143 10.2816ZM15.8321 10.5986C15.8518 10.6632 15.8178 10.7308 15.7561 10.7495C15.6945 10.7683 15.6287 10.7311 15.609 10.6665C15.5894 10.6019 15.6234 10.5343 15.685 10.5156C15.7466 10.4968 15.8125 10.534 15.8321 10.5986ZM15.8988 11.2175C15.9604 11.1988 15.9944 11.1312 15.9748 11.0666C15.9551 11.002 15.8893 10.9648 15.8276 10.9836C15.766 11.0023 15.732 11.0698 15.7517 11.1345C15.7713 11.1991 15.8372 11.2363 15.8988 11.2175ZM16.1174 11.5345C16.1371 11.5991 16.103 11.6667 16.0414 11.6854C15.9798 11.7041 15.914 11.6669 15.8943 11.6023C15.8747 11.5377 15.9087 11.4702 15.9703 11.4514C16.0319 11.4327 16.0978 11.4699 16.1174 11.5345ZM16.1841 12.1534C16.2457 12.1347 16.2797 12.0671 16.2601 12.0025C16.2404 11.9379 16.1745 11.9007 16.1129 11.9194C16.0513 11.9381 16.0173 12.0057 16.037 12.0703C16.0566 12.1349 16.1225 12.1721 16.1841 12.1534ZM16.4019 12.4704C16.4216 12.535 16.3875 12.6026 16.3259 12.6213C16.2643 12.6401 16.1985 12.6029 16.1788 12.5383C16.1592 12.4736 16.1932 12.4061 16.2548 12.3873C16.3164 12.3686 16.3823 12.4058 16.4019 12.4704ZM16.4678 13.0892C16.5294 13.0705 16.5634 13.003 16.5438 12.9383C16.5241 12.8737 16.4583 12.8365 16.3966 12.8553C16.335 12.874 16.301 12.9416 16.3207 13.0062C16.3403 13.0708 16.4062 13.108 16.4678 13.0892ZM16.6864 13.4063C16.7061 13.4709 16.672 13.5385 16.6104 13.5572C16.5488 13.576 16.483 13.5388 16.4633 13.4742C16.4437 13.4096 16.4777 13.342 16.5393 13.3233C16.6009 13.3045 16.6668 13.3417 16.6864 13.4063ZM16.7523 14.0251C16.8139 14.0064 16.8479 13.9388 16.8283 13.8742C16.8086 13.8096 16.7428 13.7724 16.6811 13.7911C16.6195 13.8099 16.5855 13.8774 16.6052 13.942C16.6248 14.0067 16.6907 14.0438 16.7523 14.0251ZM16.9709 14.3422C16.9906 14.4068 16.9565 14.4744 16.8949 14.4931C16.8333 14.5118 16.7675 14.4746 16.7478 14.41C16.7282 14.3454 16.7622 14.2779 16.8238 14.2591C16.8854 14.2404 16.9513 14.2776 16.9709 14.3422ZM17.0368 14.961C17.0984 14.9423 17.1324 14.8747 17.1128 14.8101C17.0931 14.7455 17.0273 14.7083 16.9657 14.7271C16.904 14.7458 16.87 14.8134 16.8897 14.878C16.9093 14.9426 16.9752 14.9798 17.0368 14.961ZM17.2554 15.2781C17.2751 15.3427 17.2411 15.4102 17.1794 15.429C17.1178 15.4477 17.052 15.4105 17.0323 15.3459C17.0127 15.2813 17.0467 15.2137 17.1083 15.195C17.1699 15.1763 17.2358 15.2134 17.2554 15.2781ZM17.3221 15.8969C17.3837 15.8782 17.4177 15.8106 17.3981 15.746C17.3784 15.6814 17.3126 15.6442 17.2509 15.663C17.1893 15.6817 17.1553 15.7493 17.175 15.8139C17.1946 15.8785 17.2605 15.9157 17.3221 15.8969ZM17.5399 16.2139C17.5596 16.2785 17.5256 16.3461 17.4639 16.3648C17.4023 16.3836 17.3365 16.3464 17.3168 16.2818C17.2972 16.2171 17.3312 16.1496 17.3928 16.1308C17.4544 16.1121 17.5203 16.1493 17.5399 16.2139ZM17.6066 16.8328C17.6682 16.8141 17.7022 16.7465 17.6826 16.6819C17.6629 16.6173 17.5971 16.5801 17.5354 16.5988C17.4738 16.6176 17.4398 16.6851 17.4595 16.7497C17.4791 16.8143 17.545 16.8515 17.6066 16.8328Z" fill="url(#paint3_linear_5352_7120)"/>
</g>
<g filter="url(#filter4_ii_5352_7120)">
<path fill-rule="evenodd" clip-rule="evenodd" d="M3.45694 13.9789C3.29977 13.4621 3.59137 12.9157 4.10825 12.7585L17.6309 8.6466C18.1478 8.48943 18.6942 8.78103 18.8514 9.2979L19.2679 10.6677C19.2862 10.7278 19.2491 10.7904 19.1889 10.8087C18.388 11.0523 17.9522 11.9519 18.2156 12.818C18.479 13.6842 19.3418 14.1889 20.1427 13.9454C20.2029 13.9271 20.2686 13.9585 20.2868 14.0186L20.63 15.1472C20.7872 15.6641 20.4956 16.2105 19.9787 16.3676L6.45601 20.4795C5.93913 20.6367 5.39272 20.3451 5.23555 19.8282L4.92392 18.8034C4.88689 18.6816 4.95096 18.5537 5.0603 18.4885C5.65672 18.1332 5.9481 17.3628 5.72137 16.6171C5.49464 15.8715 4.82372 15.3937 4.13044 15.4305C4.00335 15.4373 3.87891 15.3667 3.84188 15.2449L3.45694 13.9789ZM15.5493 9.66272C15.5689 9.72733 15.5349 9.79489 15.4733 9.81363C15.4117 9.83236 15.3458 9.79517 15.3262 9.73056C15.3065 9.66595 15.3405 9.59839 15.4021 9.57966C15.4638 9.56092 15.5296 9.59811 15.5493 9.66272ZM15.6159 10.2816C15.6775 10.2629 15.7116 10.1953 15.6919 10.1307C15.6723 10.0661 15.6064 10.0289 15.5448 10.0476C15.4832 10.0664 15.4492 10.1339 15.4688 10.1985C15.4885 10.2632 15.5543 10.3003 15.6159 10.2816ZM15.8338 10.5986C15.8534 10.6632 15.8194 10.7308 15.7578 10.7495C15.6962 10.7683 15.6303 10.7311 15.6107 10.6665C15.591 10.6019 15.625 10.5343 15.6867 10.5156C15.7483 10.4968 15.8141 10.534 15.8338 10.5986ZM15.9004 11.2175C15.962 11.1988 15.9961 11.1312 15.9764 11.0666C15.9568 11.002 15.8909 10.9648 15.8293 10.9836C15.7677 11.0023 15.7337 11.0698 15.7533 11.1345C15.773 11.1991 15.8388 11.2363 15.9004 11.2175ZM16.1191 11.5345C16.1387 11.5991 16.1047 11.6667 16.0431 11.6854C15.9815 11.7041 15.9156 11.6669 15.896 11.6023C15.8763 11.5377 15.9103 11.4702 15.9719 11.4514C16.0336 11.4327 16.0994 11.4699 16.1191 11.5345ZM16.1857 12.1534C16.2473 12.1347 16.2814 12.0671 16.2617 12.0025C16.2421 11.9379 16.1762 11.9007 16.1146 11.9194C16.053 11.9381 16.019 12.0057 16.0386 12.0703C16.0583 12.1349 16.1241 12.1721 16.1857 12.1534ZM16.4036 12.4704C16.4232 12.535 16.3892 12.6026 16.3276 12.6213C16.266 12.6401 16.2001 12.6029 16.1805 12.5383C16.1608 12.4736 16.1948 12.4061 16.2564 12.3873C16.3181 12.3686 16.3839 12.4058 16.4036 12.4704ZM16.4694 13.0892C16.5311 13.0705 16.5651 13.003 16.5454 12.9383C16.5258 12.8737 16.4599 12.8365 16.3983 12.8553C16.3367 12.874 16.3027 12.9416 16.3223 13.0062C16.342 13.0708 16.4078 13.108 16.4694 13.0892ZM16.6881 13.4063C16.7077 13.4709 16.6737 13.5385 16.6121 13.5572C16.5505 13.576 16.4846 13.5388 16.465 13.4742C16.4453 13.4096 16.4793 13.342 16.5409 13.3233C16.6026 13.3045 16.6684 13.3417 16.6881 13.4063ZM16.7539 14.0251C16.8156 14.0064 16.8496 13.9388 16.8299 13.8742C16.8103 13.8096 16.7444 13.7724 16.6828 13.7911C16.6212 13.8099 16.5872 13.8774 16.6068 13.942C16.6265 14.0067 16.6923 14.0438 16.7539 14.0251ZM16.9726 14.3422C16.9922 14.4068 16.9582 14.4744 16.8966 14.4931C16.835 14.5118 16.7691 14.4746 16.7495 14.41C16.7298 14.3454 16.7638 14.2779 16.8254 14.2591C16.8871 14.2404 16.9529 14.2776 16.9726 14.3422ZM17.0385 14.961C17.1001 14.9423 17.1341 14.8747 17.1144 14.8101C17.0948 14.7455 17.0289 14.7083 16.9673 14.7271C16.9057 14.7458 16.8717 14.8134 16.8913 14.878C16.911 14.9426 16.9768 14.9798 17.0385 14.961ZM17.2571 15.2781C17.2767 15.3427 17.2427 15.4102 17.1811 15.429C17.1195 15.4477 17.0536 15.4105 17.034 15.3459C17.0143 15.2813 17.0483 15.2137 17.11 15.195C17.1716 15.1763 17.2374 15.2134 17.2571 15.2781ZM17.3237 15.8969C17.3854 15.8782 17.4194 15.8106 17.3997 15.746C17.3801 15.6814 17.3142 15.6442 17.2526 15.663C17.191 15.6817 17.157 15.7493 17.1766 15.8139C17.1963 15.8785 17.2621 15.9157 17.3237 15.8969ZM17.5416 16.2139C17.5612 16.2785 17.5272 16.3461 17.4656 16.3648C17.404 16.3836 17.3381 16.3464 17.3185 16.2818C17.2988 16.2171 17.3328 16.1496 17.3945 16.1308C17.4561 16.1121 17.5219 16.1493 17.5416 16.2139ZM17.6082 16.8328C17.6699 16.8141 17.7039 16.7465 17.6842 16.6819C17.6646 16.6173 17.5987 16.5801 17.5371 16.5988C17.4755 16.6176 17.4415 16.6851 17.4611 16.7497C17.4808 16.8143 17.5466 16.8515 17.6082 16.8328Z" fill="url(#paint4_linear_5352_7120)"/>
</g>
<g filter="url(#filter5_i_5352_7120)">
<rect x="5.93799" y="13.8514" width="9.29284" height="5.13552" rx="0.244548" transform="rotate(-16.9131 5.93799 13.8514)" fill="url(#paint5_linear_5352_7120)"/>
</g>
<path d="M8.07047 15.3173C8.05212 15.2569 8.08716 15.2133 8.1756 15.1864C8.21351 15.1749 8.28623 15.1543 8.39377 15.1246C8.5134 15.0944 8.6034 15.0701 8.66376 15.0517C8.7129 15.0368 8.77171 15.0159 8.84019 14.9889C8.88707 14.9716 8.91682 14.961 8.92946 14.9572C9.00752 14.9365 9.07707 14.9307 9.1381 14.9397C9.15567 14.942 9.17087 14.9466 9.18368 14.9535C9.1965 14.9603 9.20632 14.9749 9.21315 14.9974C9.22254 15.0283 9.22083 15.058 9.208 15.0864C9.19475 15.1134 9.17409 15.1312 9.14601 15.1397C9.11513 15.1491 9.06892 15.1586 9.0074 15.1681C8.95247 15.1741 8.90535 15.183 8.86605 15.195C8.82814 15.2065 8.79958 15.216 8.78035 15.2233C8.79023 15.2709 8.82184 15.3825 8.8752 15.558C8.93881 15.7671 9.00958 15.9772 9.08752 16.1881L9.1103 16.2479C9.12781 16.3055 9.10357 16.3443 9.03759 16.3643C8.98565 16.3801 8.94692 16.3789 8.92141 16.3606C8.89548 16.3408 8.87483 16.3057 8.85946 16.2552C8.82916 16.1555 8.78857 16.0321 8.73771 15.885C8.69453 15.7632 8.66504 15.6763 8.64925 15.6244C8.63858 15.5893 8.61013 15.4806 8.56392 15.2983L8.31819 15.3754C8.23957 15.3993 8.18269 15.4089 8.14753 15.4043C8.11196 15.3982 8.08627 15.3692 8.07047 15.3173Z" fill="#1B1D24"/>
<path d="M9.4089 14.7746C9.45931 14.7638 9.50618 14.7641 9.54951 14.7755C9.59241 14.7855 9.62048 14.8122 9.63371 14.8557C9.64353 14.888 9.63599 14.9187 9.61108 14.9477C9.58715 14.9749 9.55413 14.9949 9.51201 15.0078C9.4713 15.0201 9.44002 15.0181 9.41818 15.0018C9.39633 14.9854 9.38199 14.966 9.37516 14.9435C9.36236 14.9014 9.3559 14.8651 9.35578 14.8344C9.35707 14.8034 9.37478 14.7834 9.4089 14.7746ZM9.86101 15.6562L9.87958 15.7172C9.89622 15.772 9.91342 15.8235 9.93117 15.8718C9.94989 15.9182 9.96953 15.9652 9.99009 16.0126C9.99296 16.0271 9.98691 16.045 9.97195 16.0664C9.95657 16.0864 9.94115 16.0988 9.92571 16.1035C9.89904 16.1116 9.87017 16.115 9.8391 16.1137C9.80902 16.1106 9.78882 16.1022 9.77851 16.0884C9.75642 16.0461 9.74005 16.0074 9.72937 15.9723C9.69437 15.8571 9.65159 15.7291 9.60103 15.588C9.557 15.4634 9.5273 15.3758 9.51193 15.3252C9.50425 15.3 9.51027 15.2744 9.52998 15.2484C9.5497 15.2225 9.5736 15.2053 9.60168 15.1967C9.64239 15.1844 9.67324 15.1849 9.69423 15.1985C9.71663 15.2116 9.7338 15.2378 9.74575 15.2771L9.86101 15.6562Z" fill="#1B1D24"/>
<path d="M10.785 15.0646C10.8038 15.1264 10.7816 15.1669 10.7184 15.1861C10.6974 15.1925 10.6783 15.1929 10.6613 15.1874C10.6443 15.1818 10.6244 15.1718 10.6015 15.1572C10.5453 15.1237 10.5018 15.1117 10.4709 15.1211C10.4302 15.1334 10.3938 15.1575 10.3618 15.1933C10.3311 15.2287 10.3105 15.2718 10.2999 15.3226C10.2892 15.3734 10.292 15.4254 10.3082 15.4788C10.3262 15.5377 10.3523 15.5835 10.3867 15.6159C10.4226 15.648 10.4693 15.6706 10.527 15.6837C10.5482 15.688 10.5716 15.6893 10.5972 15.6877C10.6242 15.6856 10.6468 15.6818 10.665 15.6762C10.7057 15.6639 10.7521 15.6321 10.804 15.5811C10.8231 15.563 10.8395 15.5488 10.8532 15.5385C10.8669 15.5282 10.8822 15.5205 10.8991 15.5154C10.9145 15.5107 10.9342 15.5124 10.9581 15.5204C10.982 15.5285 10.9972 15.543 11.0036 15.5641C11.0164 15.6062 11.0076 15.648 10.9773 15.6894C10.9465 15.7294 10.9047 15.7659 10.8519 15.7989C10.8 15.83 10.7481 15.8534 10.6961 15.8692C10.6133 15.8944 10.5303 15.8989 10.4472 15.8828C10.3655 15.8663 10.2935 15.8314 10.2314 15.7782C10.1687 15.7236 10.1246 15.6542 10.099 15.57C10.0717 15.4802 10.0671 15.3918 10.0852 15.3051C10.1033 15.2183 10.1403 15.1434 10.1963 15.0803C10.2523 15.0173 10.321 14.9734 10.4024 14.9487C10.4487 14.9346 10.499 14.9285 10.5533 14.9304C10.6075 14.9323 10.6564 14.9443 10.6999 14.9663C10.7434 14.9884 10.7718 15.0211 10.785 15.0646Z" fill="#1B1D24"/>
<path d="M12.0245 15.2468C12.054 15.2577 12.0754 15.2704 12.089 15.2847C12.1025 15.299 12.1131 15.3187 12.1208 15.344C12.1272 15.3651 12.122 15.3881 12.1051 15.4132C12.0891 15.4365 12.072 15.4509 12.0538 15.4564C12.0383 15.4611 12.0186 15.4617 11.9946 15.4583C11.9705 15.4549 11.951 15.4486 11.9359 15.4393C11.9166 15.4314 11.877 15.4097 11.8172 15.3742C11.7587 15.3383 11.7147 15.3095 11.6851 15.2879C11.6153 15.2401 11.5805 15.2162 11.5805 15.2162L11.4792 15.148L11.3778 15.2985L11.456 15.5255C11.4675 15.5634 11.4658 15.593 11.4508 15.6144C11.4373 15.6354 11.4214 15.6487 11.4031 15.6543C11.3764 15.6624 11.3511 15.6647 11.327 15.6613C11.3044 15.6574 11.2891 15.6498 11.281 15.6385C11.2485 15.587 11.2183 15.5157 11.1906 15.4244C11.1385 15.2531 11.0997 15.1154 11.0742 15.0112C11.0409 14.8818 11.007 14.7602 10.9725 14.6465C10.9618 14.6114 10.9428 14.5642 10.9156 14.505C10.9104 14.4928 10.9021 14.4731 10.8908 14.4459C10.8794 14.4187 10.8703 14.3938 10.8635 14.3714C10.8537 14.3391 10.8565 14.3106 10.872 14.286C10.8889 14.2609 10.9149 14.243 10.95 14.2323C10.9781 14.2238 11.0034 14.2261 11.0257 14.2392C11.0491 14.2505 11.0655 14.2716 11.0749 14.3025C11.089 14.3488 11.109 14.4094 11.1348 14.4844C11.1607 14.5594 11.1789 14.6144 11.1896 14.6495C11.2028 14.693 11.2192 14.7517 11.2385 14.8255C11.2477 14.8657 11.2552 14.8956 11.2612 14.9153C11.28 14.977 11.2963 15.028 11.3101 15.0683C11.3448 15.001 11.3938 14.9202 11.4572 14.8258C11.5214 14.7295 11.5732 14.6601 11.6124 14.6175C11.6559 14.569 11.6833 14.5431 11.6945 14.5397C11.724 14.5307 11.7512 14.5293 11.7761 14.5356C11.801 14.5418 11.8173 14.5575 11.825 14.5828C11.8326 14.6081 11.8351 14.6288 11.8324 14.645C11.8292 14.6597 11.8206 14.6769 11.8066 14.6965L11.5952 14.977C11.6782 15.0331 11.7637 15.0899 11.8517 15.1475C11.9394 15.2036 11.997 15.2367 12.0245 15.2468Z" fill="#1B1D24"/>
<path d="M12.1442 14.8929C12.1181 14.8073 12.1155 14.7306 12.1363 14.663C12.1567 14.5939 12.193 14.5238 12.245 14.4528C12.2604 14.4328 12.2897 14.4108 12.3331 14.3869C12.376 14.3616 12.415 14.3436 12.4501 14.3329C12.4922 14.3201 12.5392 14.3158 12.5911 14.3199C12.6439 14.3223 12.6885 14.3302 12.7248 14.3437C12.7883 14.3658 12.8375 14.3991 12.8725 14.4437C12.9071 14.4869 12.9349 14.5428 12.9558 14.6116C12.9648 14.6411 12.9567 14.675 12.9315 14.7133C12.9073 14.7498 12.8763 14.7738 12.8384 14.7853L12.7577 14.8076C12.717 14.8199 12.6592 14.8391 12.5842 14.8649L12.5407 14.8805C12.5106 14.8927 12.4879 14.9011 12.4724 14.9058C12.45 14.9126 12.4182 14.9192 12.3772 14.9256C12.4029 14.9898 12.4433 15.0343 12.4983 15.059C12.5529 15.0822 12.6055 15.0862 12.656 15.0708C12.7445 15.0439 12.8009 15.0076 12.8253 14.9618C12.8484 14.9318 12.864 14.9125 12.8721 14.9039C12.8803 14.8953 12.8948 14.8878 12.9159 14.8814C12.9384 14.8746 12.9612 14.8791 12.9845 14.8951C13.0077 14.911 13.0225 14.9295 13.0289 14.9505C13.0362 14.9744 13.0289 15.0035 13.0071 15.0377C12.9863 15.0701 12.9554 15.1071 12.9144 15.1487C12.8911 15.1681 12.8576 15.189 12.8138 15.2115C12.7701 15.234 12.7327 15.2499 12.7019 15.2593C12.6527 15.2743 12.5937 15.2769 12.5248 15.2672C12.4555 15.256 12.4007 15.2374 12.3606 15.2113C12.3204 15.1852 12.2793 15.1432 12.2372 15.0855C12.1965 15.0273 12.1655 14.9631 12.1442 14.8929ZM12.5459 14.7086C12.6456 14.6783 12.7175 14.6526 12.7617 14.6315C12.7465 14.5917 12.7239 14.5625 12.6937 14.5441C12.6631 14.5242 12.6254 14.5112 12.5806 14.5049C12.5662 14.5031 12.5537 14.5023 12.543 14.5025C12.5324 14.5027 12.5207 14.5047 12.5081 14.5085C12.4435 14.5281 12.3941 14.5623 12.3598 14.6111C12.327 14.6594 12.3147 14.7122 12.3229 14.7696C12.3944 14.7524 12.4687 14.7321 12.5459 14.7086Z" fill="#1B1D24"/>
<path d="M13.0939 14.335C13.0734 14.3381 13.0547 14.3346 13.0378 14.3244C13.0223 14.3138 13.0116 14.2987 13.0056 14.279C13.0026 14.2692 13.0015 14.258 13.0023 14.2455C13.0045 14.2326 13.0092 14.2204 13.0165 14.209C13.0301 14.188 13.0501 14.1658 13.0768 14.1424C13.1052 14.1199 13.1237 14.0974 13.1322 14.0749C13.1406 14.0524 13.1372 14.0159 13.1218 13.9653C13.1154 13.9443 13.1085 13.9264 13.101 13.9118C13.0949 13.8968 13.0906 13.8851 13.088 13.8767C13.0786 13.8458 13.0828 13.8192 13.1006 13.797C13.1183 13.7747 13.1419 13.7591 13.1714 13.7501C13.2079 13.739 13.2353 13.7407 13.2534 13.7551C13.273 13.769 13.2903 13.8006 13.3052 13.8497C13.3198 13.8975 13.3302 13.9395 13.3367 13.9759C13.3427 14.0109 13.3428 14.0438 13.3369 14.0748C13.3565 14.0688 13.3884 14.0576 13.4324 14.0411C13.4934 14.0195 13.5357 14.0051 13.5596 13.9978C13.5835 13.9906 13.6065 13.9905 13.6285 13.9976C13.6502 14.0033 13.6642 14.0166 13.6706 14.0377C13.6796 14.0672 13.6799 14.0908 13.6715 14.1087C13.6632 14.1266 13.6477 14.1413 13.6251 14.1527C13.5723 14.1857 13.4936 14.2196 13.3892 14.2544C13.403 14.31 13.4198 14.3701 13.4394 14.4347C13.4723 14.5428 13.5038 14.6237 13.5339 14.6774C13.556 14.7197 13.5801 14.7485 13.6061 14.7635C13.6331 14.7768 13.667 14.7772 13.7077 14.7648C13.7288 14.7584 13.7448 14.7505 13.7557 14.7411C13.768 14.7312 13.7747 14.7253 13.7757 14.7235C13.7895 14.7085 13.8035 14.6989 13.8175 14.6947C13.8372 14.6887 13.8531 14.6907 13.8654 14.7008C13.8791 14.7105 13.8891 14.7258 13.8955 14.7469C13.9074 14.7862 13.8964 14.8256 13.8624 14.865C13.828 14.9031 13.7778 14.9322 13.7118 14.9522C13.6374 14.9749 13.5676 14.9723 13.5024 14.9446C13.4382 14.915 13.3901 14.8653 13.3581 14.7952C13.324 14.7335 13.2888 14.643 13.2525 14.5237C13.2367 14.4717 13.2184 14.4014 13.1976 14.3127L13.0939 14.335Z" fill="#1B1D24"/>
</g>
<defs>
<filter id="filter0_iif_5352_7120" x="0.693848" y="0.97319" width="20.5566" height="19.9496" filterUnits="userSpaceOnUse" color-interpolation-filters="sRGB">
<feFlood flood-opacity="0" result="BackgroundImageFix"/>
<feBlend mode="normal" in="SourceGraphic" in2="BackgroundImageFix" result="shape"/>
<feColorMatrix in="SourceAlpha" type="matrix" values="0 0 0 0 0 0 0 0 0 0 0 0 0 0 0 0 0 0 127 0" result="hardAlpha"/>
<feOffset dx="0.489097" dy="0.489097"/>
<feGaussianBlur stdDeviation="0.366823"/>
<feComposite in2="hardAlpha" operator="arithmetic" k2="-1" k3="1"/>
<feColorMatrix type="matrix" values="0 0 0 0 1 0 0 0 0 1 0 0 0 0 1 0 0 0 0.25 0"/>
<feBlend mode="normal" in2="shape" result="effect1_innerShadow_5352_7120"/>
<feColorMatrix in="SourceAlpha" type="matrix" values="0 0 0 0 0 0 0 0 0 0 0 0 0 0 0 0 0 0 127 0" result="hardAlpha"/>
<feOffset dx="0.733645" dy="0.978194"/>
<feGaussianBlur stdDeviation="0.244548"/>
<feComposite in2="hardAlpha" operator="arithmetic" k2="-1" k3="1"/>
<feColorMatrix type="matrix" values="0 0 0 0 1 0 0 0 0 1 0 0 0 0 1 0 0 0 0.12 0"/>
<feBlend mode="normal" in2="effect1_innerShadow_5352_7120" result="effect2_innerShadow_5352_7120"/>
<feGaussianBlur stdDeviation="1" result="effect3_foregroundBlur_5352_7120"/>
</filter>
<filter id="filter1_ii_5352_7120" x="2.69434" y="2.97325" width="17.0457" height="16.4387" filterUnits="userSpaceOnUse" color-interpolation-filters="sRGB">
<feFlood flood-opacity="0" result="BackgroundImageFix"/>
<feBlend mode="normal" in="SourceGraphic" in2="BackgroundImageFix" result="shape"/>
<feColorMatrix in="SourceAlpha" type="matrix" values="0 0 0 0 0 0 0 0 0 0 0 0 0 0 0 0 0 0 127 0" result="hardAlpha"/>
<feOffset dx="0.489097" dy="0.489097"/>
<feGaussianBlur stdDeviation="0.366823"/>
<feComposite in2="hardAlpha" operator="arithmetic" k2="-1" k3="1"/>
<feColorMatrix type="matrix" values="0 0 0 0 1 0 0 0 0 1 0 0 0 0 1 0 0 0 0.25 0"/>
<feBlend mode="normal" in2="shape" result="effect1_innerShadow_5352_7120"/>
<feColorMatrix in="SourceAlpha" type="matrix" values="0 0 0 0 0 0 0 0 0 0 0 0 0 0 0 0 0 0 127 0" result="hardAlpha"/>
<feOffset dx="0.733645" dy="0.978194"/>
<feGaussianBlur stdDeviation="0.244548"/>
<feComposite in2="hardAlpha" operator="arithmetic" k2="-1" k3="1"/>
<feColorMatrix type="matrix" values="0 0 0 0 1 0 0 0 0 1 0 0 0 0 1 0 0 0 0.12 0"/>
<feBlend mode="normal" in2="effect1_innerShadow_5352_7120" result="effect2_innerShadow_5352_7120"/>
</filter>
<filter id="filter2_i_5352_7120" x="5.23975" y="6.77609" width="10.1436" height="9.8288" filterUnits="userSpaceOnUse" color-interpolation-filters="sRGB">
<feFlood flood-opacity="0" result="BackgroundImageFix"/>
<feBlend mode="normal" in="SourceGraphic" in2="BackgroundImageFix" result="shape"/>
<feColorMatrix in="SourceAlpha" type="matrix" values="0 0 0 0 0 0 0 0 0 0 0 0 0 0 0 0 0 0 127 0" result="hardAlpha"/>
<feOffset/>
<feGaussianBlur stdDeviation="0.366823"/>
<feComposite in2="hardAlpha" operator="arithmetic" k2="-1" k3="1"/>
<feColorMatrix type="matrix" values="0 0 0 0 0.118058 0 0 0 0 0.3875 0 0 0 0 0.050698 0 0 0 0.2 0"/>
<feBlend mode="normal" in2="shape" result="effect1_innerShadow_5352_7120"/>
</filter>
<filter id="filter3_iif_5352_7120" x="1.41211" y="6.60402" width="21.2578" height="15.9181" filterUnits="userSpaceOnUse" color-interpolation-filters="sRGB">
<feFlood flood-opacity="0" result="BackgroundImageFix"/>
<feBlend mode="normal" in="SourceGraphic" in2="BackgroundImageFix" result="shape"/>
<feColorMatrix in="SourceAlpha" type="matrix" values="0 0 0 0 0 0 0 0 0 0 0 0 0 0 0 0 0 0 127 0" result="hardAlpha"/>
<feOffset dx="0.489097" dy="0.489097"/>
<feGaussianBlur stdDeviation="0.366823"/>
<feComposite in2="hardAlpha" operator="arithmetic" k2="-1" k3="1"/>
<feColorMatrix type="matrix" values="0 0 0 0 1 0 0 0 0 1 0 0 0 0 1 0 0 0 0.25 0"/>
<feBlend mode="normal" in2="shape" result="effect1_innerShadow_5352_7120"/>
<feColorMatrix in="SourceAlpha" type="matrix" values="0 0 0 0 0 0 0 0 0 0 0 0 0 0 0 0 0 0 127 0" result="hardAlpha"/>
<feOffset dx="0.733645" dy="0.978194"/>
<feGaussianBlur stdDeviation="0.244548"/>
<feComposite in2="hardAlpha" operator="arithmetic" k2="-1" k3="1"/>
<feColorMatrix type="matrix" values="0 0 0 0 1 0 0 0 0 1 0 0 0 0 1 0 0 0 0.12 0"/>
<feBlend mode="normal" in2="effect1_innerShadow_5352_7120" result="effect2_innerShadow_5352_7120"/>
<feGaussianBlur stdDeviation="1" result="effect3_foregroundBlur_5352_7120"/>
</filter>
<filter id="filter4_ii_5352_7120" x="3.41455" y="8.60402" width="17.7469" height="12.4072" filterUnits="userSpaceOnUse" color-interpolation-filters="sRGB">
<feFlood flood-opacity="0" result="BackgroundImageFix"/>
<feBlend mode="normal" in="SourceGraphic" in2="BackgroundImageFix" result="shape"/>
<feColorMatrix in="SourceAlpha" type="matrix" values="0 0 0 0 0 0 0 0 0 0 0 0 0 0 0 0 0 0 127 0" result="hardAlpha"/>
<feOffset dx="0.489097" dy="0.489097"/>
<feGaussianBlur stdDeviation="0.366823"/>
<feComposite in2="hardAlpha" operator="arithmetic" k2="-1" k3="1"/>
<feColorMatrix type="matrix" values="0 0 0 0 1 0 0 0 0 1 0 0 0 0 1 0 0 0 0.25 0"/>
<feBlend mode="normal" in2="shape" result="effect1_innerShadow_5352_7120"/>
<feColorMatrix in="SourceAlpha" type="matrix" values="0 0 0 0 0 0 0 0 0 0 0 0 0 0 0 0 0 0 127 0" result="hardAlpha"/>
<feOffset dx="0.733645" dy="0.978194"/>
<feGaussianBlur stdDeviation="0.244548"/>
<feComposite in2="hardAlpha" operator="arithmetic" k2="-1" k3="1"/>
<feColorMatrix type="matrix" values="0 0 0 0 1 0 0 0 0 1 0 0 0 0 1 0 0 0 0.12 0"/>
<feBlend mode="normal" in2="effect1_innerShadow_5352_7120" result="effect2_innerShadow_5352_7120"/>
</filter>
<filter id="filter5_i_5352_7120" x="5.99854" y="11.2084" width="10.2637" height="7.49585" filterUnits="userSpaceOnUse" color-interpolation-filters="sRGB">
<feFlood flood-opacity="0" result="BackgroundImageFix"/>
<feBlend mode="normal" in="SourceGraphic" in2="BackgroundImageFix" result="shape"/>
<feColorMatrix in="SourceAlpha" type="matrix" values="0 0 0 0 0 0 0 0 0 0 0 0 0 0 0 0 0 0 127 0" result="hardAlpha"/>
<feOffset/>
<feGaussianBlur stdDeviation="0.5"/>
<feComposite in2="hardAlpha" operator="arithmetic" k2="-1" k3="1"/>
<feColorMatrix type="matrix" values="0 0 0 0 0 0 0 0 0 0 0 0 0 0 0 0 0 0 0.14 0"/>
<feBlend mode="normal" in2="shape" result="effect1_innerShadow_5352_7120"/>
</filter>
<linearGradient id="paint0_linear_5352_7120" x1="8.27575" y1="7.9461" x2="13.6685" y2="13.9498" gradientUnits="userSpaceOnUse">
<stop stop-color="#FD9358"/>
<stop offset="0.716667" stop-color="#EC8051"/>
<stop offset="1" stop-color="#CF6060"/>
</linearGradient>
<linearGradient id="paint1_linear_5352_7120" x1="8.27624" y1="7.94616" x2="13.669" y2="13.9499" gradientUnits="userSpaceOnUse">
<stop stop-color="#FD9358"/>
<stop offset="0.716667" stop-color="#EC8051"/>
<stop offset="1" stop-color="#CF6060"/>
</linearGradient>
<linearGradient id="paint2_linear_5352_7120" x1="9.78558" y1="12.8851" x2="9.78558" y2="18.0206" gradientUnits="userSpaceOnUse">
<stop offset="0.450456" stop-color="#FFA285"/>
<stop offset="1" stop-color="#FFD3C0" stop-opacity="0"/>
</linearGradient>
<linearGradient id="paint3_linear_5352_7120" x1="10.8672" y1="10.7025" x2="13.2149" y2="18.4236" gradientUnits="userSpaceOnUse">
<stop stop-color="#A0FD58"/>
<stop offset="0.716667" stop-color="#95EC51"/>
<stop offset="1" stop-color="#91CF60"/>
</linearGradient>
<linearGradient id="paint4_linear_5352_7120" x1="10.8696" y1="10.7025" x2="13.2174" y2="18.4236" gradientUnits="userSpaceOnUse">
<stop stop-color="#BEFB8D"/>
<stop offset="0.716667" stop-color="#86DF41"/>
<stop offset="1" stop-color="#8EEE42"/>
</linearGradient>
<linearGradient id="paint5_linear_5352_7120" x1="10.5844" y1="13.8514" x2="10.5844" y2="18.9869" gradientUnits="userSpaceOnUse">
<stop offset="0.450456" stop-color="#B4FF85"/>
<stop offset="1" stop-color="#C5FFC0" stop-opacity="0"/>
</linearGradient>
<clipPath id="clip0_5352_7120">
<rect width="24" height="24" fill="white"/>
</clipPath>
</defs>
</svg>
