<svg width="24" height="24" viewBox="0 0 24 24" fill="none" xmlns="http://www.w3.org/2000/svg">
<g filter="url(#filter0_f_5352_7504)">
<path fill-rule="evenodd" clip-rule="evenodd" d="M13.5242 13.9105H11.2854V19.1344H10.1333C9.12044 19.1344 8.29932 19.9555 8.29932 20.9684C8.29932 20.9859 8.31347 21 8.33094 21H16.1034C16.1209 21 16.135 20.9859 16.135 20.9684C16.135 19.9555 15.3139 19.1344 14.301 19.1344H13.5242V13.9105Z" fill="url(#paint0_linear_5352_7504)"/>
<path fill-rule="evenodd" clip-rule="evenodd" d="M13.5242 15.0299C13.5242 14.4117 13.023 13.9105 12.4048 13.9105V13.9105C11.7866 13.9105 11.2854 14.4117 11.2854 15.0299V17.9823C11.2854 18.6186 10.7696 19.1344 10.1333 19.1344V19.1344C9.12044 19.1344 8.29932 19.9555 8.29932 20.9684C8.29932 20.9859 8.31347 21 8.33094 21H16.1034C16.1209 21 16.135 20.9859 16.135 20.9684C16.135 19.9555 15.3139 19.1344 14.301 19.1344V19.1344C13.872 19.1344 13.5242 18.7866 13.5242 18.3576V15.0299Z" fill="url(#paint1_linear_5352_7504)"/>
<g filter="url(#filter1_f_5352_7504)">
<path d="M13.5238 20.4404C12.4791 20.4404 11.8448 17.331 11.6582 15.7763L13.5238 15.4031C13.4617 16.7091 13.3746 19.3956 13.5238 19.6941C13.6731 19.9926 14.8298 20.0672 15.3895 20.0672C15.2029 20.1916 14.5686 20.4404 13.5238 20.4404Z" fill="#F7B41C"/>
</g>
<path d="M18.8584 7.10443L21.6568 6.91786C21.7812 8.286 21.2837 11.3581 16.8062 11.9551" stroke="url(#paint2_linear_5352_7504)" stroke-width="0.99501" stroke-linejoin="round"/>
<path d="M5.81449 7.10443L3.01603 6.91786C2.89165 8.286 3.38915 11.3581 7.8667 11.9551" stroke="url(#paint3_linear_5352_7504)" stroke-width="0.99501" stroke-linejoin="round"/>
<path d="M19.12 6.82114C19.12 11.5608 16.113 15.4031 12.4037 15.4031C8.69441 15.4031 5.68741 11.5608 5.68741 6.82114C5.68741 2.08145 4.38153 3.08985 12.5902 3.08984C20.2394 3.08984 19.12 2.08145 19.12 6.82114Z" fill="url(#paint4_linear_5352_7504)"/>
<g filter="url(#filter2_f_5352_7504)">
<path d="M10.9111 15.2165C18.0752 12.2315 17.9384 5.88828 16.8812 3.08981L19.12 3.64951C20.4632 14.0971 13.523 16.1493 10.9111 15.2165Z" fill="#F7B41C"/>
</g>
<path d="M11.9306 6.41165C12.0795 5.95329 12.728 5.95329 12.8769 6.41165L13.2135 7.44774C13.2801 7.65273 13.4712 7.79151 13.6867 7.79151H14.7761C15.258 7.79151 15.4584 8.40823 15.0685 8.69151L14.1872 9.33185C14.0128 9.45853 13.9398 9.68309 14.0064 9.88807L14.3431 10.9242C14.492 11.3825 13.9674 11.7637 13.5775 11.4804L12.6962 10.8401C12.5218 10.7134 12.2857 10.7134 12.1113 10.8401L11.23 11.4804C10.8401 11.7637 10.3154 11.3825 10.4644 10.9242L10.801 9.88807C10.8676 9.68309 10.7947 9.45853 10.6203 9.33185L9.73894 8.69151C9.34904 8.40823 9.54942 7.79151 10.0314 7.79151H11.1208C11.3363 7.79151 11.5273 7.65273 11.5939 7.44774L11.9306 6.41165Z" fill="#F5F5F5"/>
</g>
<path fill-rule="evenodd" clip-rule="evenodd" d="M13.5242 13.9105H11.2854V19.1344H10.1333C9.12044 19.1344 8.29932 19.9555 8.29932 20.9684C8.29932 20.9859 8.31347 21 8.33094 21H16.1034C16.1209 21 16.135 20.9859 16.135 20.9684C16.135 19.9555 15.3139 19.1344 14.301 19.1344H13.5242V13.9105Z" fill="url(#paint5_linear_5352_7504)"/>
<path fill-rule="evenodd" clip-rule="evenodd" d="M13.5242 15.0299C13.5242 14.4117 13.023 13.9105 12.4048 13.9105V13.9105C11.7866 13.9105 11.2854 14.4117 11.2854 15.0299V17.9823C11.2854 18.6186 10.7696 19.1344 10.1333 19.1344V19.1344C9.12044 19.1344 8.29932 19.9555 8.29932 20.9684C8.29932 20.9859 8.31347 21 8.33094 21H16.1034C16.1209 21 16.135 20.9859 16.135 20.9684C16.135 19.9555 15.3139 19.1344 14.301 19.1344V19.1344C13.872 19.1344 13.5242 18.7866 13.5242 18.3576V15.0299Z" fill="url(#paint6_linear_5352_7504)"/>
<g filter="url(#filter3_f_5352_7504)">
<path d="M13.5238 20.4404C12.4791 20.4404 11.8448 17.331 11.6582 15.7763L13.5238 15.4031C13.4617 16.7091 13.3746 19.3956 13.5238 19.6941C13.6731 19.9926 14.8298 20.0672 15.3895 20.0672C15.2029 20.1916 14.5686 20.4404 13.5238 20.4404Z" fill="#F7B41C"/>
</g>
<path d="M18.8584 7.10443L21.6568 6.91786C21.7812 8.286 21.2837 11.3581 16.8062 11.9551" stroke="url(#paint7_linear_5352_7504)" stroke-width="0.99501" stroke-linejoin="round"/>
<path d="M5.81449 7.10443L3.01603 6.91786C2.89165 8.286 3.38915 11.3581 7.8667 11.9551" stroke="url(#paint8_linear_5352_7504)" stroke-width="0.99501" stroke-linejoin="round"/>
<path d="M19.12 6.82114C19.12 11.5608 16.113 15.4031 12.4037 15.4031C8.69441 15.4031 5.68741 11.5608 5.68741 6.82114C5.68741 2.08145 4.38153 3.08985 12.5902 3.08984C20.2394 3.08984 19.12 2.08145 19.12 6.82114Z" fill="url(#paint9_linear_5352_7504)"/>
<g filter="url(#filter4_f_5352_7504)">
<path d="M10.9111 15.2165C18.0752 12.2315 17.9384 5.88828 16.8812 3.08981L19.12 3.64951C20.4632 14.0971 13.523 16.1493 10.9111 15.2165Z" fill="#F7B41C"/>
</g>
<g filter="url(#filter5_i_5352_7504)">
<path d="M11.9306 6.41165C12.0795 5.95329 12.728 5.95329 12.8769 6.41165L13.2135 7.44774C13.2801 7.65273 13.4712 7.79151 13.6867 7.79151H14.7761C15.258 7.79151 15.4584 8.40823 15.0685 8.69151L14.1872 9.33185C14.0128 9.45853 13.9398 9.68309 14.0064 9.88807L14.3431 10.9242C14.492 11.3825 13.9674 11.7637 13.5775 11.4804L12.6962 10.8401C12.5218 10.7134 12.2857 10.7134 12.1113 10.8401L11.23 11.4804C10.8401 11.7637 10.3154 11.3825 10.4644 10.9242L10.801 9.88807C10.8676 9.68309 10.7947 9.45853 10.6203 9.33185L9.73894 8.69151C9.34904 8.40823 9.54942 7.79151 10.0314 7.79151H11.1208C11.3363 7.79151 11.5273 7.65273 11.5939 7.44774L11.9306 6.41165Z" fill="#F5F5F5"/>
</g>
<defs>
<filter id="filter0_f_5352_7504" x="1.35958" y="1.85714" width="21.9537" height="20.2857" filterUnits="userSpaceOnUse" color-interpolation-filters="sRGB">
<feFlood flood-opacity="0" result="BackgroundImageFix"/>
<feBlend mode="normal" in="SourceGraphic" in2="BackgroundImageFix" result="shape"/>
<feGaussianBlur stdDeviation="0.571429" result="effect1_foregroundBlur_5352_7504"/>
</filter>
<filter id="filter1_f_5352_7504" x="10.3315" y="14.0765" width="6.3848" height="7.69059" filterUnits="userSpaceOnUse" color-interpolation-filters="sRGB">
<feFlood flood-opacity="0" result="BackgroundImageFix"/>
<feBlend mode="normal" in="SourceGraphic" in2="BackgroundImageFix" result="shape"/>
<feGaussianBlur stdDeviation="0.66334" result="effect1_foregroundBlur_5352_7504"/>
</filter>
<filter id="filter2_f_5352_7504" x="9.58445" y="1.76313" width="11.0328" height="14.9815" filterUnits="userSpaceOnUse" color-interpolation-filters="sRGB">
<feFlood flood-opacity="0" result="BackgroundImageFix"/>
<feBlend mode="normal" in="SourceGraphic" in2="BackgroundImageFix" result="shape"/>
<feGaussianBlur stdDeviation="0.66334" result="effect1_foregroundBlur_5352_7504"/>
</filter>
<filter id="filter3_f_5352_7504" x="10.3315" y="14.0765" width="6.3848" height="7.69059" filterUnits="userSpaceOnUse" color-interpolation-filters="sRGB">
<feFlood flood-opacity="0" result="BackgroundImageFix"/>
<feBlend mode="normal" in="SourceGraphic" in2="BackgroundImageFix" result="shape"/>
<feGaussianBlur stdDeviation="0.66334" result="effect1_foregroundBlur_5352_7504"/>
</filter>
<filter id="filter4_f_5352_7504" x="9.58445" y="1.76313" width="11.0328" height="14.9815" filterUnits="userSpaceOnUse" color-interpolation-filters="sRGB">
<feFlood flood-opacity="0" result="BackgroundImageFix"/>
<feBlend mode="normal" in="SourceGraphic" in2="BackgroundImageFix" result="shape"/>
<feGaussianBlur stdDeviation="0.66334" result="effect1_foregroundBlur_5352_7504"/>
</filter>
<filter id="filter5_i_5352_7504" x="9.53271" y="6.06789" width="5.7417" height="5.50978" filterUnits="userSpaceOnUse" color-interpolation-filters="sRGB">
<feFlood flood-opacity="0" result="BackgroundImageFix"/>
<feBlend mode="normal" in="SourceGraphic" in2="BackgroundImageFix" result="shape"/>
<feColorMatrix in="SourceAlpha" type="matrix" values="0 0 0 0 0 0 0 0 0 0 0 0 0 0 0 0 0 0 127 0" result="hardAlpha"/>
<feOffset/>
<feGaussianBlur stdDeviation="0.05"/>
<feComposite in2="hardAlpha" operator="arithmetic" k2="-1" k3="1"/>
<feColorMatrix type="matrix" values="0 0 0 0 0 0 0 0 0 0 0 0 0 0 0 0 0 0 0.12 0"/>
<feBlend mode="normal" in2="shape" result="effect1_innerShadow_5352_7504"/>
</filter>
<linearGradient id="paint0_linear_5352_7504" x1="8.3433" y1="14.1751" x2="15.1851" y2="19.5764" gradientUnits="userSpaceOnUse">
<stop stop-color="#FEBB0E"/>
<stop offset="1" stop-color="#FEE354"/>
</linearGradient>
<linearGradient id="paint1_linear_5352_7504" x1="8.3433" y1="14.1751" x2="15.1851" y2="19.5764" gradientUnits="userSpaceOnUse">
<stop stop-color="#FEBB0E"/>
<stop offset="1" stop-color="#FEE354"/>
</linearGradient>
<linearGradient id="paint2_linear_5352_7504" x1="19.2396" y1="6.91786" x2="19.2396" y2="11.9551" gradientUnits="userSpaceOnUse">
<stop stop-color="#FFBE2A"/>
<stop offset="1" stop-color="#FFC94C" stop-opacity="0.85"/>
</linearGradient>
<linearGradient id="paint3_linear_5352_7504" x1="5.43326" y1="6.91786" x2="5.43326" y2="11.9551" gradientUnits="userSpaceOnUse">
<stop stop-color="#FFBE2A"/>
<stop offset="1" stop-color="#FFC94C" stop-opacity="0.85"/>
</linearGradient>
<linearGradient id="paint4_linear_5352_7504" x1="5.68748" y1="3.46295" x2="17.6276" y2="12.7912" gradientUnits="userSpaceOnUse">
<stop stop-color="#FEBB0E"/>
<stop offset="1" stop-color="#FEE354"/>
</linearGradient>
<linearGradient id="paint5_linear_5352_7504" x1="8.3433" y1="14.1751" x2="15.1851" y2="19.5764" gradientUnits="userSpaceOnUse">
<stop stop-color="#FEBB0E"/>
<stop offset="1" stop-color="#FEE354"/>
</linearGradient>
<linearGradient id="paint6_linear_5352_7504" x1="8.3433" y1="14.1751" x2="15.1851" y2="19.5764" gradientUnits="userSpaceOnUse">
<stop stop-color="#FEBB0E"/>
<stop offset="1" stop-color="#FEE354"/>
</linearGradient>
<linearGradient id="paint7_linear_5352_7504" x1="19.2396" y1="6.91786" x2="19.2396" y2="11.9551" gradientUnits="userSpaceOnUse">
<stop stop-color="#FFBE2A"/>
<stop offset="1" stop-color="#FFC94C" stop-opacity="0.85"/>
</linearGradient>
<linearGradient id="paint8_linear_5352_7504" x1="5.43326" y1="6.91786" x2="5.43326" y2="11.9551" gradientUnits="userSpaceOnUse">
<stop stop-color="#FFBE2A"/>
<stop offset="1" stop-color="#FFC94C" stop-opacity="0.85"/>
</linearGradient>
<linearGradient id="paint9_linear_5352_7504" x1="5.68748" y1="3.46295" x2="17.6276" y2="12.7912" gradientUnits="userSpaceOnUse">
<stop stop-color="#FEBB0E"/>
<stop offset="1" stop-color="#FEE354"/>
</linearGradient>
</defs>
</svg>
